<mxfile host="Electron" modified="2024-08-11T08:21:10.032Z" agent="Mozilla/5.0 (Windows NT 10.0; Win64; x64) AppleWebKit/537.36 (KHTML, like Gecko) draw.io/22.1.2 Chrome/114.0.5735.289 Electron/25.9.4 Safari/537.36" etag="a_Nbg15wVA_JbM4BvUnt" version="22.1.2" type="device">
  <diagram name="Page-1" id="E0_pW1qBGKgDtt8U9RNg">
    <mxGraphModel dx="6480" dy="2787" grid="1" gridSize="10" guides="1" tooltips="1" connect="1" arrows="1" fold="1" page="1" pageScale="1" pageWidth="850" pageHeight="1100" background="none" math="0" shadow="0">
      <root>
        <mxCell id="0" />
        <mxCell id="1" parent="0" />
        <mxCell id="FBP9V_QitPPs8bwZiFOF-24" value="" style="rounded=0;whiteSpace=wrap;html=1;" parent="1" vertex="1">
          <mxGeometry x="-1400" y="400" width="2080" height="1040" as="geometry" />
        </mxCell>
        <mxCell id="4stN7NY26LSZ3dm4umwW-23" value="" style="rounded=0;whiteSpace=wrap;html=1;fillColor=#ffe6cc;strokeColor=#d79b00;" parent="1" vertex="1">
          <mxGeometry x="-1120" y="560" width="320" height="160" as="geometry" />
        </mxCell>
        <mxCell id="PULh2WPa8bwhRNqMOQ6o-54" value="&lt;span style=&quot;font-size: 14px;&quot;&gt;Validate the access token via the public key from Keycloak&lt;/span&gt;" style="text;html=1;strokeColor=none;fillColor=none;align=center;verticalAlign=middle;whiteSpace=wrap;rounded=0;" parent="1" vertex="1">
          <mxGeometry x="-491.25" y="860" width="182.5" height="40" as="geometry" />
        </mxCell>
        <mxCell id="4stN7NY26LSZ3dm4umwW-29" value="" style="group" parent="1" vertex="1" connectable="0">
          <mxGeometry x="-560" y="560" width="320" height="160" as="geometry" />
        </mxCell>
        <mxCell id="PULh2WPa8bwhRNqMOQ6o-1" value="" style="rounded=0;whiteSpace=wrap;html=1;fillColor=#f5f5f5;strokeColor=#666666;fontColor=#333333;" parent="4stN7NY26LSZ3dm4umwW-29" vertex="1">
          <mxGeometry width="320" height="160" as="geometry" />
        </mxCell>
        <mxCell id="PULh2WPa8bwhRNqMOQ6o-5" value="&lt;font style=&quot;font-size: 25px;&quot;&gt;&amp;nbsp; &amp;nbsp; FastAPI&lt;/font&gt;" style="text;html=1;strokeColor=none;fillColor=none;align=center;verticalAlign=middle;whiteSpace=wrap;rounded=0;" parent="4stN7NY26LSZ3dm4umwW-29" vertex="1">
          <mxGeometry x="70" y="30" width="250" height="30" as="geometry" />
        </mxCell>
        <mxCell id="PULh2WPa8bwhRNqMOQ6o-6" value="&lt;font style=&quot;font-size: 14px;&quot;&gt;Backend Service&lt;/font&gt;" style="text;html=1;strokeColor=none;fillColor=none;align=center;verticalAlign=middle;whiteSpace=wrap;rounded=0;" parent="4stN7NY26LSZ3dm4umwW-29" vertex="1">
          <mxGeometry x="110" y="60" width="200" height="90" as="geometry" />
        </mxCell>
        <mxCell id="RBGCLftY1xsVnZ64TF7R-2" value="" style="shape=image;verticalLabelPosition=bottom;labelBackgroundColor=default;verticalAlign=top;aspect=fixed;imageAspect=0;image=data:image/svg+xml,PHN2ZyB4bWxucz0iaHR0cDovL3d3dy53My5vcmcvMjAwMC9zdmciIHZpZXdCb3g9IjAgMCAxNTQgMTU0IiB3aWR0aD0iMjUwMCIgaGVpZ2h0PSIyNTAwIiBmaWxsPSJub25lIj48Y2lyY2xlIHI9Ijc3IiBmaWxsPSIjMDU5OThiIiBjeT0iNzciIGN4PSI3NyIvPjxwYXRoIGZpbGw9IiNmZmYiIGQ9Ik04MS4zNzUgMTguNjY3bC0zOC43NSA3MEg3Ny41bC0zLjg3NSA0Ni42NjYgMzguNzUtNzBINzcuNXoiLz48L3N2Zz4=;" parent="4stN7NY26LSZ3dm4umwW-29" vertex="1">
          <mxGeometry x="17.5" y="33.75" width="92.5" height="92.5" as="geometry" />
        </mxCell>
        <mxCell id="4stN7NY26LSZ3dm4umwW-38" value="" style="endArrow=classic;html=1;rounded=0;exitX=1;exitY=0.25;exitDx=0;exitDy=0;flowAnimation=1;" parent="1" source="PULh2WPa8bwhRNqMOQ6o-5" edge="1">
          <mxGeometry width="50" height="50" relative="1" as="geometry">
            <mxPoint x="420" y="610" as="sourcePoint" />
            <mxPoint x="80" y="600" as="targetPoint" />
          </mxGeometry>
        </mxCell>
        <mxCell id="4stN7NY26LSZ3dm4umwW-41" value="&lt;font style=&quot;font-size: 14px;&quot;&gt;API Response&lt;/font&gt;" style="edgeLabel;html=1;align=center;verticalAlign=middle;resizable=0;points=[];" parent="4stN7NY26LSZ3dm4umwW-38" vertex="1" connectable="0">
          <mxGeometry x="-0.1508" y="-1" relative="1" as="geometry">
            <mxPoint x="16" y="1" as="offset" />
          </mxGeometry>
        </mxCell>
        <mxCell id="4stN7NY26LSZ3dm4umwW-43" value="" style="endArrow=classic;html=1;rounded=0;entryX=1;entryY=0.75;entryDx=0;entryDy=0;orthogonalLoop=0;flowAnimation=1;" parent="1" target="PULh2WPa8bwhRNqMOQ6o-1" edge="1">
          <mxGeometry width="50" height="50" relative="1" as="geometry">
            <mxPoint x="90" y="680" as="sourcePoint" />
            <mxPoint x="-230" y="670" as="targetPoint" />
          </mxGeometry>
        </mxCell>
        <mxCell id="4stN7NY26LSZ3dm4umwW-46" value="&lt;font style=&quot;font-size: 14px;&quot;&gt;API REQUEST&lt;/font&gt;" style="edgeLabel;html=1;align=center;verticalAlign=middle;resizable=0;points=[];" parent="4stN7NY26LSZ3dm4umwW-43" vertex="1" connectable="0">
          <mxGeometry x="0.0839" relative="1" as="geometry">
            <mxPoint as="offset" />
          </mxGeometry>
        </mxCell>
        <mxCell id="K__z2euJDpCVZkljAeqn-7" value="" style="endArrow=classic;html=1;rounded=0;entryX=0.616;entryY=-0.013;entryDx=0;entryDy=0;flowAnimation=1;entryPerimeter=0;exitX=0.624;exitY=1.023;exitDx=0;exitDy=0;exitPerimeter=0;" parent="1" source="PULh2WPa8bwhRNqMOQ6o-1" edge="1">
          <mxGeometry width="50" height="50" relative="1" as="geometry">
            <mxPoint x="-360" y="732.08" as="sourcePoint" />
            <mxPoint x="-359.8800000000001" y="1080" as="targetPoint" />
          </mxGeometry>
        </mxCell>
        <mxCell id="K__z2euJDpCVZkljAeqn-8" value="" style="endArrow=classic;html=1;rounded=0;flowAnimation=1;exitX=0.371;exitY=-0.002;exitDx=0;exitDy=0;exitPerimeter=0;entryX=0.376;entryY=1.029;entryDx=0;entryDy=0;entryPerimeter=0;" parent="1" source="K__z2euJDpCVZkljAeqn-2" target="PULh2WPa8bwhRNqMOQ6o-1" edge="1">
          <mxGeometry width="50" height="50" relative="1" as="geometry">
            <mxPoint x="-440" y="1070" as="sourcePoint" />
            <mxPoint x="-440" y="730" as="targetPoint" />
          </mxGeometry>
        </mxCell>
        <mxCell id="K__z2euJDpCVZkljAeqn-2" value="" style="rounded=0;whiteSpace=wrap;html=1;fillColor=#f5f5f5;strokeColor=#666666;fontColor=#333333;" parent="1" vertex="1">
          <mxGeometry x="-560" y="1080" width="320" height="160" as="geometry" />
        </mxCell>
        <mxCell id="K__z2euJDpCVZkljAeqn-4" value="&lt;font style=&quot;font-size: 31px;&quot;&gt;IAM&lt;/font&gt;" style="text;html=1;strokeColor=none;fillColor=none;align=center;verticalAlign=middle;whiteSpace=wrap;rounded=0;" parent="1" vertex="1">
          <mxGeometry x="-490" y="1110" width="250" height="30" as="geometry" />
        </mxCell>
        <mxCell id="K__z2euJDpCVZkljAeqn-5" value="&lt;font style=&quot;font-size: 14px;&quot;&gt;Identity Access Management, to verify the user and based on user authorization give then access.&lt;/font&gt;" style="text;html=1;strokeColor=none;fillColor=none;align=center;verticalAlign=middle;whiteSpace=wrap;rounded=0;" parent="1" vertex="1">
          <mxGeometry x="-440" y="1150" width="190" height="80" as="geometry" />
        </mxCell>
        <mxCell id="K__z2euJDpCVZkljAeqn-6" value="" style="shape=image;verticalLabelPosition=bottom;labelBackgroundColor=default;verticalAlign=top;aspect=fixed;imageAspect=0;image=https://upload.wikimedia.org/wikipedia/commons/2/29/Keycloak_Logo.png;" parent="1" vertex="1">
          <mxGeometry x="-556" y="1110" width="106" height="106" as="geometry" />
        </mxCell>
        <mxCell id="3k1DekAGnxyUw68kRBdM-15" value="" style="endArrow=classic;html=1;rounded=0;flowAnimation=1;entryX=0.375;entryY=1;entryDx=0;entryDy=0;entryPerimeter=0;" parent="1" edge="1" target="PULh2WPa8bwhRNqMOQ6o-7">
          <mxGeometry width="50" height="50" relative="1" as="geometry">
            <mxPoint x="-360" y="1250" as="sourcePoint" />
            <mxPoint x="200" y="740" as="targetPoint" />
            <Array as="points">
              <mxPoint x="-360" y="1280" />
              <mxPoint x="200" y="1280" />
            </Array>
          </mxGeometry>
        </mxCell>
        <mxCell id="9hN0eDX0j1WcBgjOl_ok-59" value="" style="endArrow=classic;html=1;rounded=0;exitX=1;exitY=0.25;exitDx=0;exitDy=0;flowAnimation=1;" parent="1" edge="1">
          <mxGeometry width="50" height="50" relative="1" as="geometry">
            <mxPoint x="-800" y="600" as="sourcePoint" />
            <mxPoint x="-560" y="600" as="targetPoint" />
          </mxGeometry>
        </mxCell>
        <mxCell id="9hN0eDX0j1WcBgjOl_ok-61" value="" style="endArrow=classic;html=1;rounded=0;entryX=1;entryY=0.75;entryDx=0;entryDy=0;orthogonalLoop=0;flowAnimation=1;" parent="1" edge="1">
          <mxGeometry width="50" height="50" relative="1" as="geometry">
            <mxPoint x="-560" y="680" as="sourcePoint" />
            <mxPoint x="-800" y="680" as="targetPoint" />
          </mxGeometry>
        </mxCell>
        <mxCell id="9hN0eDX0j1WcBgjOl_ok-81" value="" style="rounded=0;whiteSpace=wrap;html=1;" parent="1" vertex="1">
          <mxGeometry x="-1360" y="480" width="130" height="525" as="geometry" />
        </mxCell>
        <mxCell id="9hN0eDX0j1WcBgjOl_ok-82" value="&lt;font style=&quot;font-size: 24px;&quot;&gt;Tech Stack&lt;/font&gt;" style="rounded=0;whiteSpace=wrap;html=1;" parent="1" vertex="1">
          <mxGeometry x="-1360" y="480" width="130" height="50" as="geometry" />
        </mxCell>
        <mxCell id="9hN0eDX0j1WcBgjOl_ok-86" value="" style="shape=image;verticalLabelPosition=bottom;labelBackgroundColor=default;verticalAlign=top;aspect=fixed;imageAspect=0;image=https://upload.wikimedia.org/wikipedia/commons/thumb/c/c3/Python-logo-notext.svg/935px-Python-logo-notext.svg.png;" parent="1" vertex="1">
          <mxGeometry x="-1336.727551020408" y="885" width="87.28161764705882" height="95.58823529411765" as="geometry" />
        </mxCell>
        <mxCell id="9hN0eDX0j1WcBgjOl_ok-88" value="" style="shape=image;verticalLabelPosition=bottom;labelBackgroundColor=default;verticalAlign=top;aspect=fixed;imageAspect=0;image=data:image/svg+xml,PHN2ZyB4bWxucz0iaHR0cDovL3d3dy53My5vcmcvMjAwMC9zdmciIHZpZXdCb3g9IjAgMCAxNTQgMTU0IiB3aWR0aD0iMjUwMCIgaGVpZ2h0PSIyNTAwIiBmaWxsPSJub25lIj48Y2lyY2xlIHI9Ijc3IiBmaWxsPSIjMDU5OThiIiBjeT0iNzciIGN4PSI3NyIvPjxwYXRoIGZpbGw9IiNmZmYiIGQ9Ik04MS4zNzUgMTguNjY3bC0zOC43NSA3MEg3Ny41bC0zLjg3NSA0Ni42NjYgMzguNzUtNzBINzcuNXoiLz48L3N2Zz4=;" parent="1" vertex="1">
          <mxGeometry x="-1343.02" y="542.5" width="92.5" height="92.5" as="geometry" />
        </mxCell>
        <mxCell id="9hN0eDX0j1WcBgjOl_ok-91" value="" style="shape=image;verticalLabelPosition=bottom;labelBackgroundColor=default;verticalAlign=top;aspect=fixed;imageAspect=0;image=https://upload.wikimedia.org/wikipedia/commons/thumb/8/8a/Google_Gemini_logo.svg/2560px-Google_Gemini_logo.svg.png;" parent="1" vertex="1">
          <mxGeometry x="-1349.29" y="805" width="112.41" height="41.5" as="geometry" />
        </mxCell>
        <mxCell id="FBP9V_QitPPs8bwZiFOF-27" value="" style="shape=image;verticalLabelPosition=bottom;labelBackgroundColor=default;verticalAlign=top;aspect=fixed;imageAspect=0;image=https://download.logo.wine/logo/PostgreSQL/PostgreSQL-Logo.wine.png;clipPath=inset(9% 26.67% 14% 26.67%);" parent="1" vertex="1">
          <mxGeometry x="-1111" y="572" width="123.64" height="136" as="geometry" />
        </mxCell>
        <mxCell id="FBP9V_QitPPs8bwZiFOF-28" value="" style="shape=image;verticalLabelPosition=bottom;labelBackgroundColor=default;verticalAlign=top;aspect=fixed;imageAspect=0;image=https://download.logo.wine/logo/PostgreSQL/PostgreSQL-Logo.wine.png;clipPath=inset(8% 27% 14.5% 26%);" parent="1" vertex="1">
          <mxGeometry x="-1353.5" y="657.47" width="117" height="128.62" as="geometry" />
        </mxCell>
        <mxCell id="4stN7NY26LSZ3dm4umwW-24" value="&lt;font style=&quot;font-size: 14px;&quot;&gt;Database to store,Keycloak Data&lt;/font&gt;" style="text;html=1;strokeColor=none;fillColor=none;align=center;verticalAlign=middle;whiteSpace=wrap;rounded=0;" parent="1" vertex="1">
          <mxGeometry x="-990" y="640" width="190" height="70" as="geometry" />
        </mxCell>
        <mxCell id="9hN0eDX0j1WcBgjOl_ok-58" value="&lt;font style=&quot;font-size: 31px;&quot;&gt;PostgreSQL&lt;/font&gt;" style="text;html=1;strokeColor=none;fillColor=none;align=center;verticalAlign=middle;whiteSpace=wrap;rounded=0;" parent="1" vertex="1">
          <mxGeometry x="-1030" y="580" width="250" height="30" as="geometry" />
        </mxCell>
        <mxCell id="COGNACrq6upIf1irOmLI-12" value="Internal Request" style="text;html=1;strokeColor=none;fillColor=none;align=center;verticalAlign=middle;whiteSpace=wrap;rounded=0;" parent="1" vertex="1">
          <mxGeometry x="-780" y="620" width="182.5" height="40" as="geometry" />
        </mxCell>
        <mxCell id="PULh2WPa8bwhRNqMOQ6o-59" value="" style="rounded=0;whiteSpace=wrap;html=1;" parent="1" vertex="1">
          <mxGeometry x="444.25" y="480" width="130" height="810" as="geometry" />
        </mxCell>
        <mxCell id="PULh2WPa8bwhRNqMOQ6o-60" value="&lt;font style=&quot;font-size: 24px;&quot;&gt;Tech Stack&lt;/font&gt;" style="rounded=0;whiteSpace=wrap;html=1;" parent="1" vertex="1">
          <mxGeometry x="444.25" y="480" width="130" height="50" as="geometry" />
        </mxCell>
        <mxCell id="PULh2WPa8bwhRNqMOQ6o-62" value="" style="shape=image;verticalLabelPosition=bottom;labelBackgroundColor=default;verticalAlign=top;aspect=fixed;imageAspect=0;image=https://upload.wikimedia.org/wikipedia/commons/thumb/a/a7/React-icon.svg/1200px-React-icon.svg.png;" parent="1" vertex="1">
          <mxGeometry x="465.2573469387755" y="550" width="87.98897058823529" height="76.47058823529412" as="geometry" />
        </mxCell>
        <mxCell id="FBP9V_QitPPs8bwZiFOF-1" value="" style="shape=image;verticalLabelPosition=bottom;labelBackgroundColor=default;verticalAlign=top;aspect=fixed;imageAspect=0;image=data:image/png,iVBORw0KGgoAAAANSUhEUgAAAOEAAADhCAMAAAAJbSJIAAAA8FBMVEX////kTSbxZSnr6+sAAADkSR7pdVzrWSjIyMj39/fkRBTr8PDwXRbxYiPnp5r4u6f3sZnyek/pzcfkPwbwVwDj4+NVVVXnnI3lZEn97enAwMB6enq6urqnp6flak7jRhoiIiJqamroVCcWFhYuLi7iOADxXxvuXyjqfGXytar41tDwqJr1xLv65eHmXj398vDtlIP1l3frg27S0tLmWDT0iWTmhnPr39zzvbTpx8H52dL60MPul4b5w7Lmi3norqOSkpJERESUlJRQUFA/Pz9xcXHqURTycz71lnXscEz2oojq19T4tJ/5yLrzgVXs+vx+gb60AAALT0lEQVR4nO2de1vaWBDGgxKVgLY1WHW7Ne22UG+AWqpWLXYvra697Pf/NpsQAwnMDBnynpDy8P6zNg+c5Lfn5OTNzJyDZen0eznS88GxwaHyVuIT43qR/PjbeMsvks1Yzwf//E15jdkEJSx/Hjb8PnZ4jgjLy4NG3s4p4aCRl/Gj80QYXX0lcXCuCMthE6/nmPBzcGgteWy+CPvfeTPXhH9a1l8E9BwRln9fHj1SEMLym0gjl1Z51PAB8GVwjCJ89Xz0SFEICW3FPzokfJFoQmxhQWheC8KYFoTlN2/j3331av4Iy/E3pvLakHd+CONvvc+teezD+N+VOSUcWO6XFk+4liNfnPDtVqQMhNaX8K+/LYHw79dx/ZUfIXHJesLHV99liTCp178YYdjgS2uOCQOSf/p/zC1hJfra3BJaLz+H/51fwkgLwgUhSEPCN8QlM4RfEk1whCPN/DkjwuW1SO8HxwaH1irxj24NDifAYx+3mOP9Zt6v0XpvLbTQQgsttNBCCy200EK/oHb3Voqsvd3MhJ2GXWQ1Otk70SkVWU52QKs7awhRXQDhnj1rCkH2HoBwv9CE+wDCnjdrDEFeD0B4VOSpxjkCEB4UmvAAQHjszhpDkHsMIDwsNOEhgLBVaMIWgLBTaEKAabMsLOEfqxn1R4IQAWhhn4erSxm1Gm/NgxC2oaYGSmi3IYQrBSZcgRBibVtmwvh9CDFtlnUDNTVQQmcbQoi1bZkJ441BTBvatkEJIaYNbduwhAjThrZtWEKEaQuibUUifBdvDBFp81Up1EyTIHQqky8/jZCAmQkTpg0RaQu0gzQ1SEJ7B0QItW1QQoxps6wzpG3LSpgwbWcgwu2iEoJMm2VtICfTrITxtpwNEOFlYQkvQYSCbbMdrb7WtFpnCUGmTbJt9vmGVgdPtPqwzhJiTJtl7bK2zdmoaqU//UMzBpg0bdkTwI9iCb2b6rJSep+V6MMkIQpQIDzPgfAuTrhqhpAD9E1FDoS1JY6wBCNk08B2OwfCOkcISQCH4m2bY56wkyBMmLZzGOEJS9gwT9jiCW9ghHwa2L0wTniVIEwMIEQCOBRv29xvxgl/1FhClGmT4onuR+0wVRM+YQndaxjhFUvoXBonfNpkCa9ghKJtM014zxLiTJuQBna2jRP+ZE0bJgEcigOcwrapCZ+xhDhLY1ld1tSobZuaMD5GTaRHQ/G2bcc0YYW1pUDTJlXvdZWAakLetEGq9iLxts0zTSiYthMgodK2Id/xr3hLgzNtUhqYsm3V221eR091umejNKAEcCidbav2XDbU5n1t6iRE2jAJ4FA621bdFgKs2eKlCUKcaZPiiZRtq97mQthAxRID8Wlgj7Bt1Y9CXjwToYkE8KN4wh5BuJkPIRLQYp/4pG37ZorQUKQtEJsGpqNtQm0DjBCWAA7F2zabIhQSjpkIjZk2qXrPIQCr7RwIQVV7kfgnHGXbqsJKIhghLAEcSmnbzgwRxhuCmja9beNvRBgh1LRJaWDStgkriXCEqARwKJxtwxEiTZs22lYVSlKzEBqLtPmq8C/5VLRNsG0wQg9UtReJvWJ7X2fbshAaNG3Cogsy2nZh5j40FksMxFfvkdE2j11evrquUoIwYdpQVXuRznW2bW+H07/PVFrnCMGmTbJtDV20TXdaPpYINm1iPFGXJNXNgNd8LBFr2sQ0sC5JqiP8xKdHsaZNa9tghEJ6FGvaxHiiLkmqI3zIIwEcSkgD65KkOkKhpg1r2ixltA1GyKdHsZG2QOzzkLRtKELW0pRsOCFv23S1bTrCdY4QbtrERRfmCDt8Ahht2iyLD73okqQqwl0+PYpaajHUDW9MVbVtKsKrPKr2IqFsm4pQMG2opRZDoWybipA3bcCqvUjXINumIvyeR9VeJMG23RojFEwbNtIWaBdU26YivOdr2nBVe5E67H2os20qQr5qz4HbUpRtq6oI+aUWeNMmxRN3NhVq7TKizpm4DY2sAI6LXw1suwrVOVHnzGOpxVCgvfeYeOn6HXFK3rTZeNMm2TYI4U/ilLmaNtjeewxh85Q45XUeSy2GAm3iwhE+EKfM1bTBNnFhCGvfiVPmatok2wYh/EGcMsdIW6AWZosTjpDqlHt+fSzellpWRSCkkkw6wjp1ybxpa4DTo6H4maa7Ny7OIHCElM/kTRtig+RxsVsm23v/jeeYLpjblhulVKckPmHctElbJncJ672lI1wiTthhbakR0ybaNuotgvkoTag1bdiqvUh8oZNH1bYxIWSGkDJtwlILdAI4lG7RBVe9RxM274kTCpE2E6ZNrN7bJAiZQc0QUqZNWB+LTgCHwlTv0YSkaRPWx6ITwKGENDARbeMWXTCEn4gT5mza1NV7zM5EDCFl2k5Z02YglhiIr97zTghCJkhOE5KmjU8Ag6v2BuIJz9IvumAIqUDUHU9oBlCIJyoWXTCE1Pn4SBtmg+Rx6dLAF/S7iIKQj7ThE8Ch+DSwRxBWNYSkLeVNGz4BHIq3bY1xwOWqYqbRmjbk+ti4+Hgibdtch/jCOOF6s16nLI2wqQm6ai+SzrYtVy8ue92GMzK0RwibtfrdwzX5xp67aZtiixP/Rfjb7b7txiljhOu1+tLpDzZNlrtp09q2AeXy5sae63p2gtAfmrUPT0RrkmPVXiSdbUt05fLHm3Z4W64GdLXas6cTreVpngngULq1smOUF5fnpYbz1R+aD9dpXFeeVXuP4rdMTrfFSXBbbvQ+pc1P81V7qA2Sx8UBKrY4UdR5J+bcHCJtgRDVe6n/91f4SBt2fWxcykUX2QhnYNrE6r0tOKFg2kwkgEPpbFtGwhmYNkz1XmrCGZg2TPVeakLetBlJAIdCVO+lJpyBaRNt2+1/KRFTE+ZatReJX3RR6vYuA5MNI7x+SDzwDW2QPCYpDew5jZ3tzcmUKQhb33/Wa02B0BigsKykL9txS2eXF1WRcgJh58fpUn1kk/JR02YqlhhIBIy6sr39UehKgbDjD83RzqMI0SuA40r1y7l+V9r7t1xXcoT+0KzVm2OdR1gaQwngUMJ+F6OUje4J2ZUUoT8014mhyRACN0geF7/3HgHpuc7KxrfRrhwjvHp6xwxNjtBE1V4kbfWeP2C7veOLOGSCcPfThyY/NGOKN2ooARxqml+68Fw3/hgZEFb680oKujFCc6Zt6uq9/mPkce4JCVtPPgjzikxopGovUobqvegxEjwUTpupO48iNJMADiXYthTy5x57/+hZbeK8Mqa8TBvil3Ptr7rOIwhNJYBDZa9mn2rnj9wsjbBlcn6ExtKjobL/BFt2QpOmDbHoYirCHKr2ImlsG44wuXuSqQRwqOyLLrSE75I/xG3YtCEWXagIR+n6hOZiiYGyL7pITfhulW7AWAI4VPZFF6kIx4ZmnNCkaUP8cu5kQq7zHmVkqcVQ2X85VyaUOi8iNGraJkXbshFOpusTmgXMbkwZwglDMy7DhJltG0GYYmgOZTABHGql4WVjHCV8p6Drx/DMJYAfdXjTHqvkmpZQ1Xn9iM/ekdlnxaN2L88cd1rK1Wk7zy2dHBueRhO6OgoquaYlVMwrIZ2zf2D2MUiqc3xS0nflasqHQiR/aLaPzKVEJ6p1sO9OPWAnyp9XSr1chyatw+32dANWpguSArMYmrQ6x+dOphl2FM9pdG8OjVWvTanW0YqD6Mowz2oyJppBneubUrau9NzGTj6PvOm1ezBS9qzovEbpvADzShpdHe0o5x5/XnELNK+kUee4l3rA+p3XvpnhI296tQ6CuUem9OcVr7DzShpVRKPuzys5WWmz8o06MfcECfB8rbRZ+Ua9MZx7fDp3JlbarCrHJ92gKwMrvf1Lzitp5A/Y3Ifm/8v/wOysXxQKAAAAAElFTkSuQmCC;" parent="1" vertex="1">
          <mxGeometry x="458" y="650" width="110" height="110" as="geometry" />
        </mxCell>
        <mxCell id="FBP9V_QitPPs8bwZiFOF-2" value="" style="shape=image;verticalLabelPosition=bottom;labelBackgroundColor=default;verticalAlign=top;aspect=fixed;imageAspect=0;image=data:image/png,iVBORw0KGgoAAAANSUhEUgAAAgAAAAIACAYAAAD0eNT6AAAABHNCSVQICAgIfAhkiAAAAAlwSFlzAAAOxAAADsQBlSsOGwAAABl0RVh0U29mdHdhcmUAd3d3Lmlua3NjYXBlLm9yZ5vuPBoAACAASURBVHic7d1LsF1Xnd/x3zrn6i0Zy5KuHsY2dmHA2Ng8QjDdNDa0sSHIpjqEqmTS08wyY5BQqXIVswwz61FSVHcm6irAklHLujGyCaaI291YYDu0jcE2YN2XpPt+nbNXBsfyvRJ63H3O3vu/1vl/P1WunnSxV+nus87vrPVf/xUE2IrWA6hRKPH/y79DD/8OQENa1gMAAADNIwAAAOAQAQAAAIcIAAAAOEQAAADAIQIAAAAOEQAAAHCIAAAAgEMEAAAAHCIAAADgEAEAAACHCAAAADhEAAAAwCECAAAADhEAAABwiAAAAIBDBAAAABwiAAAA4BABAAAAh0asBwCgdsF6AIng3wHYgBUAAAAcIgAAAOAQWwAYZiz5AsA1EACA4ReNn59KEOPfAdiALQAAABwiAAAA4BABAAAAhwgAAAA4RAAAAMAhAgAAAA4RAAAAcIgAAACAQwQAAAAcIgAAAOAQAQAAAIcIAAAAOEQAAADAIQIAAAAOEQAAAHCIAAAAgEMEAAAAHCIAAADgEAEAAACHCAAAADg0Yj0AAJKkYPz8aPz8S/h3ABpCAMAws57Mrb/MAOCa2AIAAMAhAgAAAA6xBQCkwXq7IhX8OwANYQUAAACHCAAAADhEAAAAwCECAAAADhEAAABwiAAAAIBDBAAAABwiAAAA4BABAAAAhwgAAAA4RAAAAMAhAgAAAA4RAAAAcIgAAACAQwQAAAAcIgAAAOAQAQAAAIcIAAAAOEQAAADAoRHrAcC9YD0AAAAAAAAAAAAAAAAAAAAAAAAAAAAAAAAAAAAAAAAAAAAAAAAAAAAAAAAAAAAAAAAAAAAAAAAAAAAAAAAAAAAAAAAAAAAAAAAAAAAAAAAAAAAAAAAAAAAAAAAAAP0I1gPIxhMTH1Y3ftl6GACA62iHZ/XU6BvWw8jBiPUAslF0P6IQ/sZ6GACA6+iEr0kiAGxCy3oA2Yhx3HoIAIAbaHcmrIeQCwLAZhUFAQAAUhe3MldvEgFgs3bPTEiK1sMAAFxT1I7xSetB5IIiwDKOjp+X4l7rYQAAruq8ThzaZz2IXLACUAp1AACQMOboEggA5fByAUC6mKNLIACUEQLVpQCQLgJACQSAMjgKCADpCuJHWgkEgHIIAACQLuboEggA5fByAUC6mKNLIACUEXm5ACBZzNGlEADKaLG/BADpok6rDAJAObxcAJCqggBQBgGgFO4DAIBk7eqySlsCrYDLOnpuTtJu62EAAC4zpxOHbrIeRE5YASgrsA0AAAlibi6JAFAWVaYAkB7m5tIIAOWxxwQAqWlRAFgWAaAsUiYApIi5uSQCQGmkTABITmwxN5dEACirRcoEgOREtmfLIgCURsoEgAQxN5dEACiroNEEACSnTQAoiwBQVtzCSwYAyQnMzSURAMpabfOSAUByCABlEQDKGrtlRtKy9TAAAO9b0lMH5qwHkRsCQH+oAwCAVNCfpS8EgP7wsgFAKjie3ZcR6wFkipcNw6HNbwBUqIhSjM0/lx4AfSEA9IeXDcNhdKf1CDBMppakta7Fk/lR1gfif3942QDgSoXBr3+JGoA+EQD6w8sGAFeyCgDMyX0hAPSDtAkAlytks/8vcRVwnwgAfeFlA4DL2P36pwiwTwSAfrR42QDgMqYBgB9l/SAA9IWXDQAuYxkAOl3m5D4QAPpx/PC0gtashwEAyegaBYCgNZ364AWbh+eNANCXECVNWY8CAJJRFDbPjZp4b05GSQSAfnESAADWmW0BcAtgvwgAfaMOAADeRw+A7BAA+sdJAAC4xG4LgADQJwJAv3jpAGCdXREgP8b6RADoV6tFAACAS9gCyA4BoH+8dAAg9VoA29XhMxf3iQDQP146AJCs2wAzF/eJANCvbmDfCQAku/1/iTbAAyAA9KvL2VMAkGS7ArCNFYB+EQD6tbJ/Ur0LMAHAN7sA0NXIwWmrh+eOANCvM6Ej6bz1MADAnF0AmNax0LV6eO4IAINh6QkArAJAYA4eBAFgMLx8AGBVBMgJgIEQAAbBywcANAHKFAFgELSgBADDAMARwEEQAAbDywcArABkiQAwCLYAALgXLYsAWYUdAAFgICw/AXDOsgsgKwADIQAMokX6BOCcZRdAfoQNhAAwEF4+AM6ZXgS0lTl4AASAQXQWxmV5CSYAWLMLAFE7xietHj4MCACDOHn3ioJmrYcBAGbsagAu6Ni9q1YPHwYEgEFxFSUAzzgCmC0CwOB4CQH4RQDIFgFgYC1eQgB+WQWAyCmsQREABsVLCMAzqwDQYgVgUASAQfESAvDMrgiQuXdABIDB8RIC8IsagGwRAAbHSwjAJ9MmQMy9gyIADIqXEIBXlgGgoP5qUASAQXV5CQE4ZRkAttKDZVAEgEHtDryEAHyyvAmwG/nxNSACwKCOjc5LWrAeBgA0zm4FYE7HjyxaPXxYEACqQRIF4A8nALJGAKgGLyMAf+y6ADLnVoAAUAVeRgAeFYXNc1sUAFZhxHoAQyH42wL47n9o6che61FgEDu3t7Tv4DZdXLIeCQbxo1929T9f6Ng8vMMWQM4IANVw9zJ+8kPSgx8J1sPAANrtlvbuZQrI3dnfG/0Kl6TIRUA5YwugEv6WoyZmrEcAQJLGZy2P4hk9N3ILaxUIAFVwWAMwMWM46QB438Sc0WexiJLYAsgZAaAK0d8KwOSs9QgASIYrAJZdANsEgCoQAKrQ9rcfRQAA0uAyAIgOrFUgAFShWHP3MlIDAKTBdgvACgGgCgSAKjx9+0VJK9bDaBIrAIC9+ZWoBauZx+4egCU9dWDO6uHDhABQiRClMGk9iiYRAAB7picA7FYA3G251oUAUB1XS1KcAgDsOQ0ArubaOhEAKuPrJMDKmjTLXVyAqQnLhXC7LQBXc22dCADVcfdSsg0A2GIFAIMgAFQlBHf7UmwDALZcBgCHjdfqQgCojK8tAIkVAMCaywDACkBlCADVcfdSsgIA2LJrAiS7i4Ac3r5aFwJAVRwuS7ECANgyawJk9eXfe7i7ubYuBICqEAAANMxlG2CHd6/UhQBQla3+lqVoBwzYMgsAdkcApU6XAFARAkBVHjg4JaljPYwmsQIA2Flek2aWnAWAoDWd+uAFm4cPHwJAVZ4MhaRp62E0iQAA2DHb/5ekorB5btREr/U6qkAAqJarpSlOAQB2fB4B5BbAKhEAquSsEJB2wIAd2wBgtALg7EdW3QgAVWr5eznZBgBsmG4B2NUAuCu2rhMBoEoxuns52QYAbLjcAnC2ylo3AkC13L2crAAANlwGAIdzbJ0IAFVymE5ZAQBsmAWAGCW7j727ObZOBIAqxba7l5MVAMCGzy6ABIAqEQCqNOLv5SQAADbMigAtuwC2KQKsEgGgSkXL3ctJO2DAhssVALYAKkUAqNK7+yZkuTtmgBUAoHmdQjq/4C4AdLVtdMrq4cOIAFCll8KaJFd9qgkAQPMm56Ld97BdAJjWsdC1evgwIgBUz9USFacAgOa5PAIYfM2tTSAAVM/VS0o7YKB5pgHAqgiQEwCVIwBUz91LyjYA0CyXKwAO59a6EQCq5+4lZRsAaJbtVcBWz47u5ta6EQCq5vCyClYAgGa5XAGI/ubWuhEAqucupbICADTLrg2w7AKAw9tW60YAqJrDQhVWAIBm0QQIVSAAVM7fPhUBAGiWXQAobJ4ryePcWjcCQNVG/O1T0Q4YaJbLFYC4lQBQMQJA1bZ03L2krAAAzYlRmpp3FwCidoxPWj18WBEAqnbstiVJc9bDaBIBAGjO9EJUx2ol3u4mwAs6du+q1cOHFQGgHq5WATgFADTH5RFA+dtabQIBoA7OTgLQDhhojtMA4GpObQoBoA4tf9WqbAMAzXAZAJz9qGrKiPUAhpS7l/V//zLq99PWo0AZO7YV2n+wq9ll65HY2L0t6MG78vsN5LINME2AakEAqIPDlpXf+V+W54PRn0I67PTbX9Jf3N3W89/ebj2M0lzeBOjwR1UT8ou/OYgtXlYgcQdvCtZD6IvLLQACQC0IAPXgZQUSRwAoybIJUOFvVbUJBIA6tAkAQOpG9xAASrFb/qcIsCYEgFoEXlYgcdmuAFgVAVquAGz1d7KqCQSAOqy1Wa4CEpdrAJj0GAC6kTm1BgSAOpzcNytpyXoYAK4txwBwcTFqec3o4XYBYE7Hj9BqrAYEgPqQWIGEje6xHkF5LnsAUFRdGwJAfXhpgYTluALg8gggBYC1IQDUh5cWSNTOrb1OgLlx2QQosJpaFwJAfQgAQKJy/PUvOV0BECcA6kIAqAvLVkCyCAB9KMzafTOX1oQAUJcWy1ZAqnJtAmRaBNg1ei6t1WtDAKgLKwBAslgBKKmIkjgFMGwIALVh3wpIFQGgJMsmQLRWrw0BoC6RAACkKtctAJdtgIvAdmpNCAB12Vrw0gKJYgWgJNM2wG1+TNWEAFCX7996XkFWTTsBXEeOAWBhpfefCbubAJffa62OGhAAahOioiatRwHgT+UYAHz2AGD/v04EgFpRBwCkKMcAwD0AqBoBoE6BlxdIzZa2dPOO/AKAyzbABIBaEQBqRQMLIDWje4JCft//bAGgcgSAOtEMCEhOjsv/kuERQImbAIcUAaBOkXbAQGqyDQAeVwBoqV4rAkC9SK9AYnINABNWASBKiqwADCMCQJ1oYQkkJ9sugB6bAHGSqlYEgHrx8gKJyXUFwGUbYFqq14oAUC9eXiAx2QYAqxUAuyOAUqfLHFojAkCdto1Oye4WbQBXkeMWwEpHmllyFgCC1nTqgxdsHu4DAaBOx0JX0nnrYQBYl+MKwMRsNKvDUyyMnqsJKVgWIAw9AkD9WMICEpJjALDtAWAUABQ5AlgzAkD9CABAIlpB2rc7vwBgdgRQstwCYO6sGQGgfrzEQCL27w4ayXDW83kPAK3U65bhRyEzNLIAkjGa4fK/ZL0FQBOgYUUAqButLIFkHMzwBIDktA0wq6e1IwDUjUYWQDJyLACUDANAjL1WwDaYO2tGAKgfLzGQiFwDgFkRoGUXQFZPa0cAqBsrAEAyqAEoyfQeAH481Y0AULei4CUGEkENQEmWbYAJALUjANRt98yELHfRALwvxy2AbiFNz7tbASg0Ozpt9XAvCAB1O3bvqqQZ62EAyHMLYHI+2n0P2wWAKZ0JHauHe0EAaERgKQtIQI5bAC6PANIFsBEEgCbwMgNJOEAAKMeqBoAmQI0gADSDlxkwdvPOoO1brEdRnuk9AHZbABwBbAABoAkcBQTM5VgAKNEGGPUhADQhBtIsYGw0w+V/yWkNgPjR1IQR6wE44e5l/s43g750X54Trhfbt7W1/8B2za/4+Dt9YIf1CPpjtgUQZRcAWv7mTAsEgCa04ri3TgC7t0sPfMjHF0uu2u2gvXvb1sPADZzz2AbY4Y8mC2wBNMPdyzw5az0CYDiYbQEUhc1zJbEF0AwCQDPcvcwEAKAa52YcrgB0CuqmGkAAaIS/+wAIAMDgiihNWbUBtrsHIEpLk1YP94QA0ITjRxYlLVgPo0kEAGBwU/NRHauVeLMVgHBRJ+9eMXq4KwSA5rhaBZi46KzqEagBRwBRJwJAc1y91KwAAIPzGQB8zZWWCADNcfVSL69J88vWowDyZlYAKNEF0AECQFMcvtRTrAIAA3HZBpgmQI0hADTG374W2wDAYJzeBMgRwIYQAJoS/L3UE5bLl8AQoAYAdSIANMfdS80KADAYs3sALJsAOdwutUIAaIrDK4EJAMBgzO4BsGsCRABoEAGgKXGLu5d60nL5EhgCdvcAGH52t/r7sWSFANCU1ba7l5oVAKB/0bINsGUA6EZ39VJWCABNGbtlRpKrk/F0AwT6N70QtdY1erhdAJh7r3U6GkAAaJarCy5YAQD6xwkA1I0A0CRnxS0EAKB/LnsAyN9xaUsEgCY563A1vywtrVqPAsgTKwCoGwGgSc5WACRpas56BECeJjy2AXbYMdUSAaBZ7l5uCgGB/tiuABRWT3Y3R1oiADTJYY9r6gCA/tjWABg9N7YIAA0iADTJWQ2ARAAA+mXbBMjsJkB3P5IsEQCaRQAAsCkuuwAquJsjLREAGuWvwIUAAPTHrAiQi4DcIAA0yl8A4EpgoD8uA0DXX8t0SwSAJh0/PC2pYz2MJk2xAgCUNrMUtbxm9HC7JkDLOrmPGaNBBIBGhShpynoUTWILACiPJkBoAgGgea5ecgIAUB4BAE0gADTP1Us+sxi16mrTAxgcAQBNIAA0zlchYIzSlOVkBmTIZQBw2CjNGgGgaQ6PubANAJRjeg+AVRGgw0Zp1ggATQv+Ui4BACjH5QoAWwCNIwA0zl+vawIAUI5ZAIjq7dvZPNvd3GiNANA0hy85zYCAcny2AfZVH5UCAkDTor9e16wAAOWMe+wCGAkATSMANK3rMADMWI8AyIvZCoBdF0Bpa+GuPsoaAaBpK/snJRXWw2gSKwDA5i2uSgsrRg8vzKamjh649YLVw70iADTtTOhIOm89jCYRAIDNc3oCYEJPBlc/jFJAALDgrOEFRYDA5tkGAKvvYPb/LRAALDhreHFhQVqjHTCwKaYBwKoGIPiaE1NBALDg7ChgjNL5eetRAHlwGQAc9kdJAQHAhruXnToAYHPMjgBKNAFyhgBgwVkNgEQAADZrwmMRoMM5MQUj1gNwqaVxOauLe+rFQu9MBethYINd2wvtPbSmi4vD+Xc5cnPQ0fvb1sMozewioBgtDyizAmCAAGDD3cv+t89H/e3zzlJP8grp8Kr1IGrzbz89kmUAOGd1asayC2Db35yYArYATHDkBajb6B7rEfTHZRtghz+KUkAAMEEAAOp28KY8tzZctgEmAJggAFiYW6HgBahZjgFgpSPNLLlbASg0Ozpt9XDPCAAWzty5rCCuyAFqdHBPfgFgYjaancQzDABT77VIR8MIAFY49gLUKscVANMeAFYBgC6AZggAZqgDAOqUYwAw7QFgVQPAjyEzBAA7BACgRjkGAKc3ATIXGiEAWIn0vgbqsmOLtGd7hgHA4xYAbYDNEACsOLsREGhSjr/+Ja8rAGyHWiEAWGHfC6gNAaCkKLsAwI8hMwQAO7z0QE1yDQBmRYCWXQD5MWSGAGCFfS+gNrkGALMaALPmA5IiWwBWCABWCgIAUJdsA4DVCkDHsvagYC40QgCwsjvw0gM1Gc2wC2C3kKbnrbYAzO4BjtLSpNXDvSMAWDk2Oi9p0XoYwDDKcQVgcj7abcWbPThc1Mm7V4we7h4BwBLFL0AtcgwAHAFE0wgAljj+AtSCAFASXQBdIgBY4iQAUAsCQEl29wAwBxoiANji5QcqtnVEunlHfgFgwmMb4MA2qCUCgC0CAFCx0T1BIb/vf7YA0DgCgCWKAIHK5bj8LxkHALtGQAQAQyPWA3CtFccV85ys+vXvv9DSV+63HkV5//FvCnW61qPAZhAASipi7y4AC9QAmCIA2HL38h/ZG/XEZ/NbePrPfydNzFiPAptBACjJqgBQIgAYy28mHir+zsBOzlqPoD8HbrIeATbrYIZdACXDIkDLi4C2+psDU0IAsFSsuXv5cw0Aox/I80vFoxxXAGKUJj0GgG6kDsoQAcDS07dflOSqDWauAYAVgHyMZhgAzi9GrVnVmNgFgHkdP0I7dEMEAFMhSsHVRRiTM4a/NgZAAMhHjisALo8ABvb/rREA7LlaAsu1kG4/ASAbOdYA0AUQFggA9lx9CJbXpIUMNz0OZPir0itWAEqiCZBbBABrDlPwZIarABQB5qHdkvbtzu9v5TMAcALAGgHAmsMbAXMsBKQGIA8Hdge18vv+93kPACsA5ggA5vyl4IkMCwEJAHnIcflfcroCwEVA5ggA1mJw9yHIcQVg3x5l+cvSGwJASUU0vAeg5e7HT2oIANYc1gBMzVmPoLyRtnTzLutR4EYIACVZNgFScDf3pYYAYC362wLIsQhQohAwBwSAkiwDgMMfP6khAFjb5u9DMDFTWA+hL/QCSF+uAcBnG+C2u7kvNQQAayMHpyW5umg2xxoAiULAHOQYAGaWopbWjB5udxPgsk7uy3QmGB4EAGvHQlfSlPUwmkQAQF1yDAAcAYQVAkAKnB2HybEIUCIA5GCUNsDlEABcIwCkwFkxzOyitGK15DkAigDTl+MKgNMA4OpHT6oIAGlwFQAkadJy0usTKwBpC0HaTxvgcqwCgLMfPakiACTB4VHADOsAOAWQtn27gra0rUdRnsubAB22QE8RASAN7j4MOQYAVgDSluPyv0QRIOwQAFLgrAhQyjMAjH4gKOT5HeNCrgHAbAUgyq4NMFsASSAApMHdhyHHboBbR6Q9O6xHgWshAJRk1wNAitHdj54UEQCS4LEGIL8iQIltgJTlGwCMHlwYduQc8fejJ0UEgBTEre4+DDluAUgEgJTlGwActgFudd3NeSkiAKTg3X0T6u3IuZFvAMjzS8aDgxk2AVpak+ZX3AWAjh649YLVw7GOAJCCl8KaJFcfiBxrACSaAaUsxxWAczMuTwBM6MmQ541gQ4YAkA5XS2K5rgDQCyBdOQYA2yZAVt/B/mqeUkUASIerqtgLC1FrHetRlEcNQLpyDACmPQCsTgEEXz92UkYASIWzc7ExSufnrUdRHgEgXQcyrAFw2QZYLVdzXcoIAKlw2Bozx20AAkCabt4ZtG3EehTluQwA0ddqZ8oIAOkgAGSAIsA05bj8L7kNAO7mulQRAFLhMBVPWFZA94kVgDTleARQsmwDHCW7OnwCQCIIAKlwmIpz7Aa4c1vvP6Ql1xUAsyJAyyZAbX9zXaoIAKlwGACmMtwCkFgFSFGuAcBlF0BWAJJBAEjFVn9nY3OsAZCkv/pc0OG91qOAJLVb0r++s6XH7m1bD6UvZisAlhcBEQCSkWHd7JDa0hlXZ4v1KBqVawD4zjdb+s43pbcmpedeiXru1agzr0TNLlqPzIe7DgQ9ck9bj9zT1l9+rK1bduX563+1I11YNKwBsFFodnTa6uG4HAEgFcduW9LRc3OS9lgPpSk5FgFudMcB6a8fDvrrh4O6hfSrt6OeeyXq+dekF36dZ6OjFO3eFvTgXa33v/Q/c8dwLFxOzEW772G7FYBpnQl8MhJBAEjLuBwFgFxXAK6m3ZIe+FDQAx8K+k9flxZWpH98oxcGnnsl6uXf5R12mtRuSZ+8bf0L/6GPtLUlzxX+63J5BJDl/6QQANIyIenD1oNoyvRcbx5q5bmCe127tkkP3Rv00L3Sf/134bLtgp+8Jl2YJxBstHFZ/9GPt/WBHUP4UlzBNADYrQAQABJCAEiLqw9Ht5AuzEv7HKx5XG+74Ge/jlp1tih6YE/Qwx/pfeF/9b62br9l+L/wr2R6DwArABABIDFxXPI1EU7ORu3LtIlLv67cLlhalf7v6+vbBWffMtwbrsmOLdKff7j9/q/8T93eGsqVnzJcbgE4PO6cMgJAWtx9OCZnpY/daj0KWzu2Xr5dMDnbWxV47tWosbPSH8/nmQbuOhD0+P0jOnp/W1/4cFvbfR1yuSGXAYCrgJNCAEhJbI0r5DnZ92uYCgGrcuAm6YnPBj3x2d5P5I31A8/+Mmp+2XiA13DopqC/uLv3C//o/W0dudn5T/wbsGsDLLsAEPy1PE8ZASAlLU3I1/e/JmesR5C+jfUDna70yjtRz7wsnfpF1C/fimZz+a5t0ufvWl/W//TtLQW+8zfN9B4AO6wAJIQAkJQwLmcJgBWAckbal+oHpG9/I+j8vPR/XuutDvz4V9I7U/W9P1cez/vi3W1tZQbp27jHewAiWwAp4eObEocFMr0LgfjZ2K9bdl97u+C5V6JmBuxOuPF43iP3tLV3J3+rqkxYrQB0LGsPCndzXMoIACnptsfVtruj0wIrANW6/nFDafUGk/++XUFf/ljvy/4rH2/rzv184dehW0jTC1YrAGZzTJSWJq0ejj9FAEjJyX2zOnpuSdIO66E0hRqA+lx53HBxRXrxiu6EIy3pgQ3L+g9/tK2R4ei0m7Sp+aiu1few2RZAuKiTd68YPRxXQQBIz4SkO6wH0RRWAJqz84ruhJNzLd11205tG+FXftNMmwCZFQGy/58asn56XB2TmZwdvqY3uTh0c+DL38g5y4uwrNoAh+BqbssBASA9rlLyakeaXbIeBdAs7gFACggAqXF7EgDww+wIoGTYBpgtgNQQAFLT8hcApqgDgDNmRwAlLgLC+wgA6XH3IaEQEN6YbgHYFd24m9tSRwBITeGrCFCSJiwLogADZgGgiHbNRh1ub6aOAJAcf/tkrADAG5dtgFv+ftykjgCQmhF/KZkAAG/MVgDsTgBIbAEkhwCQmlbX3YeEIkB4EqM06XEFYIUVgNQQAFLz/VvPK2jNehhNYgUAnpxfjFrrGj3cLgDM65lDC1YPx9URAJIToqJcXZhBESA8cXkEMLD8nyICQJJ8FQKyAgBPXHYB5ARAkggAaXK1V7a40vsP8MD0IiCaAGEDAkCa3H1YWAWAF+c8bgE4W9XMBQEgSS13HxbqAOCF6RaA2T0AvlY1c0EASJHD/bKpOesRAM1wWQTo8I6THBAA0uTuwzI5Yz0CoBm2bYCtwoe/Vc0cEABS5LBlJjUA8MJlG2AFAkCCCAApcrgFQACAF6YrAFYczmk5IACkqPCXlikChBdmNQCW9wB02+7mtBwQAFK068CkpMJ6GE1645z06z8SAjC81rrS2GtdLVk1+rZbAVjWyX2s8SUoWA8A13D03ISkA9bDaNqBm6TPfzTosU8GfeV+ae9uXtG6tNtt7d2713oYQ+3Nyaix17oae62r0691dXHRMOTOrUrzqxZPflsnDt1h8WBc34j1AHBN43IYACZnpadejHrqxah2S/r0XUFfui/oS/dJn7ozqM2aFRK2uCq98Jvu+1/6L72V0EIeXQBxBQJAutydBLhSt5BefCPqxTei/tsPpF3bpC/cE/ToA71AcNt+VgdgUCCNrwAADL9JREFU79V3Cx1/ufeF/5PXu1rpWI/oGggAuAIBIFVR42zQXG5hRTr1i6hTv+hNZHcckB66N+ihjwd9+RNBu7cbDxAuTM5FnfmX3hf+02e7+sPFTGpX7LoAEgASRQBIVUvjymResfLWpPS9M1HfOxO1fYv0uY8EffGeXii4/46gQIBCBTqF9PI7hU6c7er42Y7+6e3Crp/OIKxOAdAFMFkEgHTxoSlheU167pWo516Rvvv3kWJCDGRj8d6pV7qaXc7xG/8KbAHgCgSAVMU4ziGN/l1ZTHjf7UEP3dtbIfizjwZt4c3HBgsr0s/e7OrE2a6eermj304NwRf+RlF2bYAL6plSxTSYqqgJvv+r0S2kl38X9fLvov770xQTovdj+J/fLt7/lf/8612tplq8VwXLJkBcBZwsAkCqYhxnE7seFBP6NDEX9dx7xXvHX+7qXU/dJwvD44gjbAGkim+YVH3jD7ep237behjebNsiPeikmHDYGwF1Cunnb3Z1/GzvSz/b4r0qLHekC8s2z97S2a/vf3Da5uG4niGd2obA117fpvaeJfE3MjXMxYTDGAA2Fu/9wytdzQ1D8V4VFtekmRWLJ3f0rw5u05MhoY5IuGR4ZrNhdPTcBUk3Ww8DPa0gfeKO4SkmHIYAML8SdebXhY6f7ejUK129Nc0X/lXNr/ZaATfvjzpx6FaLB+PGMp6+PAjjUiQAJKKIFBNa6xbSL95ZL9577l+6WutajyoDZkWAFACmjACQsqBxRX3Uehi4OooJmzE+G/X8670jeifOdnV+gV/5pdkVAXIEMGEEgJRFPjw52diZcKQtfeYu6dEHwtAXE1ZtaU366RvrF+q4Lt6rCk2AcBUEgLTx4clUpyv9/HXp569Hfffvo/bvkf7sY73Vgcc+GXSQjZ3LbCzeO/mrruZX+MavlFkAaDGHJYwAkDIuBBoaU3PrnQm//b3Liwk//1Fp64ivP/T0QtSz/++9av1fdfX2eb7wa8VFQLgKAkDa+PAMoSuLCXdukz774d7KwFc/FXTbPusRVo/iPUMxSnaH8JjDEkYASFlLE9wIOPwWVy5dZBT1X/7u8mLCL90XtGeH9Qj7c2426vSrva57Y691dWGRl9mE3f6/1CYApIwAkDKWz1zKtZjwyuK9l96i90sSLAMAFwElLdGpBJKkr4/fpRB/Yz0MpKPKYsIqGgFdKt47cbaj0691tbw20P8c6rDSkc4btQEuWof1o9FzNg/HjRAAUvbouV3aqnnrYSBNV3YmLFtM2E8AmJqP+vGve7/wf/TLrn5/gWX95C2tSRdN2gAXmj+4TWfCMN+zmDUCQOqOnpuXtMt6GEhf2WLCzQSAjcV7J8529cJvuqYryuiDXRvgSZ04NGrxYGwOASB1R8/9RtJd1sNAfm5UTHitALDxTP7p17q6SPFe3mZXpAWTvZlf6cShT1g8GJtDEWD6xkUAQB9uVEx4yeKq9MJvKN4bWnQBxDUQAFIXNcE6DQZ1ZWfCQzdLX/t01MTIsk6/1tUqu7TDiwCAayAApK6lcXoBoGrnLkr/49lCOkw3nqFndRMgx5iT17IeAG6E6zQBDMBqBaBFD4DUEQBSR4oG0K8ow3sA+PGSOgJA+vgQAeiP7T3KzF2JIwCkrogsowHoj2XTBlYAkkcASN0IHyIAfepY3gNQMHcljgCQutZOPkQA+mO3BRClpUmrh2NzCACp+8Hei5KMbvIAkLXCqqlTuKiTd5tcQIDNIwDkgSQNoDy7GgBqlzJAAMgBRwEB9MOqCVBgzsoBASAHgTQNoA9WAYAjgFkgAOSBDxOA8mgChOsgAOSBDxOA8uxOATBnZYDLgHIQNc6NgAA2pYjSalda6RpeBBTYtswAASAH3AgI4HrW3vvCX33vP+v5osUWQA4IADmIFAEC2KCIvS/8lU7v/1q2/L06AkAGCAA5YAsA8C1GabVYX9pf61qP6EYIABkgAOSgiONqkwAAV7rF+rL+csd+Wb+MFVYtc0AAyMHnDk3rH8c74u8FDK9Ly/rvF/BZtfEd2LyeObRgPQjcGMcAc/BkKCRNWQ8DQMXWutL8qnR+SZpYkC4uS4trOX/50wUwI/yizMe4pEPWgwAwgO6lI3rJFu8Njtbl2SAA5IMPFZCb/Ir3qsD+fyYIALkImsiqCAjw6lLx3vKlM/nOPrisAGSDAJCNOC7OAgLp2Vi8t9yVioz37ytBE6BcEAByQaoG0nGp895Kp7fEj3Ut5qpcEACy0RrP6yAwMERyPpPfuBYBIBMEgFzQDRBojs/ivYoEAkAmCAC5aIeJoTwyBKSiW/T28C8t63sr3qtKl5sAc0EAyAapGqjUZZ33OnZX5w6b1TZzVSYIALmY3T+h3eOF6N4I9I/ivbota+yWGetBYHP4MsnFmdCRdMF6GEBWukWvte7FZWl8XppakuZW+fKvD8v/GWEFICe9QsB91sMAkrWxeG+5I3X4om8Yy/8ZIQDkpKVxRX3cehhAUjpF78t+tUvxnj0CQEYIADmJLK8Bl3fe6wznhTq5omFZVggAeeHDBX+ipE53vb8+Z/LTRRfArBAAckIzIHixsfPeSkdiKz8PrFJmhQCQk1Z4h/1NDKVLxXsrnd6v/C7f+BnqKOq31oPA5vF7MjdPjB9Ut/iigh6XWkeluNd6SMjY4d12z750Jn+1K60UosF+ls5J8bSijkurY3r6Do4qZ4QAkLNvxbYW3/2kFB5RCI8o6CFFbbEeFjLSZACg894wWJL0U8U4JsUxPX34n6TAHzJTBIBh8q2J3VoqvqSgo4r6qqTbrYeExNUZAKLWj+hxoU7O3lTQmKJOaH7ptM7cuWw9IFSDADDMvj5+l6RH1NIjivFrkgzXe5GkqgMA1+YOg2mF8KwKjWmkc1I/vPUd6wGhHgQAL771zg4tbv3zXhjQI1L8tPj7Y9AAECWtvle4t0LxXqa6UviFgsZUaEwLo2feaz2OIccXgFeXFROGr0u6xXpIMNBPANhYvLfa5Vd+nn6roNMq4pi2bD+tH+y9aD0gNI8AAIoJPdtMALhUvLfy3l4+nfdytCjphfXivSMvWQ8I9ggA+FOXFxM+JukO6yGhJlcLABsv1KF4L2dvSjqhGI6rmP2JTt69Yj0gpIUAgBu7vJjwq5L2WA8JFbkUACjeGwZTCuHHKjSmYu1HOvnB31sPCGkjAKCch3+7Xbt2foFiwiGxcwvFe/laL95TOKHPHHhBTwb+kNg0Jm4MhmJCoEm9M/lFHNPKtmc0dsuM9YCQLwIAqvNkbOnFdz9FMSFQmfXivREd1w8Pv2o9IAwPAgDqQzEhUF7Uq2qF4729fIr3UB8CAJpDMSFwNZMK4YwKjandOqGnDvzRekDwgQAAGxQTwq+OFF6WihOK8TgX6sAKEy7SQDEhhtt68V6x9ZRO7pu1HhBAAEB6KCZE/hYk/UzSCY3EH+oHh39nPB7gTxAAkL5vTezWYnxQIT4u6RuimBDpKaTwz+9fqLNz6nkdu3fVelDA9RAAkB+KCZGGCYXwnAqNqdM6rlMH3rUeEFAGAQB5eziOaM/kg1I8SjEhatZR1M+leLx3oQ7Fe8gbEyWGy1+dG9VqfEit8IikxxV12HpIyNp68V575B/01IE56wEBVSEAYHhdWUwofVHSVuthIWnzks4ohuOK3VP60ZG3rAcE1IUAAD8ePbdLW8LnFeLjinpCQR+yHhLMrV+oU2hM50af00thzXpQQBMIAPDr8mLCxyTdZD0kNGJcITyvqBNaWz2hU7edtx4QYIEAAEgUEw63JUk/VYxjFO8B65jggKuhmDB368V7O9sndWx03npAQGoIAMCNUEyYg2mF8KwKjanV/QcdP/K29YCA1BEAgLIoJkwBxXvAgAgAwKAoJmzKOSmeVtRxaXVMT99xwXpAQM4IAECVKCas0hXFe0desh4QMEyYmIA6bSwmjDoq6Yj1kBLXK96LOqH5pdM6c+ey9YCAYUUAAJpCMeHVrBfvjXRO6oe3vmM9IMALAgBgZWMxofS4pDuth9SA9eI9hRP6zIEX9GQorAcFeEQAAFIxvMWEv1XQaRVxTFu2n9YP9l60HhAAAgCQpofjiHa9+4BCeFxqHc2smHBR0gsU7wFpy2VCAXz72rsH1NLDCRcTvinphGI4rmL2Jzp594r1gABcHwEAyNHj796rQkcNiwmnFMKPVWhMof20Tuz/Q8PPBzAgAgCQu0vFhL3agSck3VPDUyjeA4YMAQAYNhuLCRUfVdQH+vxfWr9QZ2XbMxq7ZabKYQKwRQAAhlm5YsIFST9TjGMa0XH98PCrDY4UQMMIAIAn/2bikFrxUSk+JukvpfB7hXhKis/oj4de4EIdwI//D1qqHMaP9hKuAAAAAElFTkSuQmCC;" parent="1" vertex="1">
          <mxGeometry x="448" y="780" width="130" height="130" as="geometry" />
        </mxCell>
        <mxCell id="FBP9V_QitPPs8bwZiFOF-3" value="" style="shape=image;verticalLabelPosition=bottom;labelBackgroundColor=default;verticalAlign=top;aspect=fixed;imageAspect=0;image=data:image/png,iVBORw0KGgoAAAANSUhEUgAACvAAAAbWBAMAAACc8X80AAAAJFBMVEVHcEzqv17r7O3r7OwODg8ODg/koSbwviXq7O3///8ODg/r16iZKQL2AAAABnRSTlMA+FayU8OtpfuQAABJF0lEQVR42u3dsW9c+bnn6QuyDSjc2gFIApUQrUTAJovuhMAmDuzE0QZ24mhrF6gSwIg7gChAiTgNSKdQUWcUJtngOnFWO4BUC/5zSxalbqlFieSpc97ze3/neey9GGD2ji236+OvT5Hn/Y//AAAAoEf//PeD/OfX/5t/+3ec//QXChBe4QVo5wfhBbB4hRcQXuEFEF6AtDzjBbB4hRcQXuEFEF6AvDzjBbB4hRcQXuEFEF6AvDzjBbB4hRcQXuEFEF6AvDzjBbB4hRcQXuEFEF6AvDzjBbB4hRcQXuEFEF6AvDzjBbB4hRcQXuEFEF6AvDzjBbB4hRcQXuEFEF6AvDzjBbB4hRcQXuEFEF6AvDzjBbB4hRcQXuEFEF6AvDzjBbB4hRcQXuEFEF6AvDzjBbB4hRcQXuEFEF6AvDzjBbB4hRcQXuEFKCO8fxVegBZ2eMb70P9V4QXoaPFGTl7hBYR3O3mFFyA2vIFfrwkvUI8fdgnvD8ILELt4/+OfwgsQG94/CS9AbHjDJu//4y8UUI0fdgtvf5P3n//Y+utf/3Ljz/5KARZvd5P3n//61zaxf//737eR/csPP3z5nw3+IgHC+5lWv0Rxu2K3hb2u6mdr1rAFhPfe8Lb6veE//8efJRYYrR2f8babvH5GAbB4d2hly8kLILytR2qb3xv+u3/dAeFtH942vzf8L5MXGK+dn/GavADRi7fd5PUvPCC8O4S3zeT93/0rDwhv+58A+5PJC/BwHTzjbfd7wyYvYPHuEF6TFyA4vCYvQHR420zef/jXHhinTp7x+r1hgOjF61U5ANHhbXVv2OQFhHeHefo3kxfgYX7oKLxelQMQvHi9KgcgOrwmL0BweFv9EoXJC4zQD52F908mL0Ds4vV7wwDR4fWqHIDg8Jq8AA/xQ4fhNXkBghdvm1fl/MvkBYR3h1/v9aocgODwejskQHetfNgw9aocgNjF6+2QANHh9aocgOjwelUOwL2l7Da8XpUDELx4/RIFQHR4/d4wQHR4TV6A7+v6Ga/JCxC9eFv93rDJCwjvDuH9weQFiA1vq8n7D38hgNHo/hmv3xsGiF68XpUDEB1ekxcgOLwmL8D31mkf4f2TyQsQu3i9KgcgOrytfm/Y5AWEd4dHsCYvwLf80E94TV6A4MXrVTkA0eH1qhyA4PB6VQ7AjoF89O83/M3kBQhdvH5vGCA6vH5vGCA6vCYvwN157C28rX6izOQFLN4diuhVOQDB4fV7wwDR4fV7wwB36PEZr8kLEL14201ef0kA4W0fXr83DBAcXq/KAWg/Sv+z1//XTV7A4u3qNxu8KgcgOLx+bxggOLwmL8BXk7Tn8PolCoDgxetVOQDR4fWqHIDg8Jq8AF/6offw/tXkBYhdvD94VQ5AbHjb/USZyQsI7w5PM/5t8gI8/kHALl93mbwAsYv3P/7SZvJ6VQ4gvP3/Y/i9YUB4uwrvn0xegN9EPOM1eQGiF6/fGwaIDu8Pfm8YIDa8rX6izOQF6hTzjLfdL1GYvIDFa/IC5AmvyQsQ+6ih5U+UmbxAyQH9Vzv/iBqfrX6izKtygJLD++9+7f7f+k1eQHiDw9vqEoXfGwaEN/ifod8bBoR3B38zeQHhjQ2vyQsIb/SP1Lb5es0vUQDCu4M/DfUPDDDW8Jq8gPBGh/evJi8gvLH5+8HkBYQ3eHf+zeQFhDe2fq2+XvN7w4Dw7qDVswavygGEt7U//9PkBYQ3JLx//uGHv1z7xz/a/YObvIDw3v5D/uUB/vqXv//9H1s7/IP7vWFAeLf++u9/ffNvf/DPHf/RvSoHEN4bf/t3GJMXEN7g8Jq8gPBGh9cvUQDCGxxevzcMCG90eE1eQHiDw2vyAsIbHV6TFxBe4QWEV3gBhFd4AeEVXgDhFV5AeIUXQHiFFxBe4QUQXgDhFV5AeIUXQHiFFxBe4QUQXuEFhFd4AYQXQHiFFxBe4QUQXuEFhFd4AYRXeAHhFV4A4QUQXuEFhFd4AYRXeAHhFV4A4RVeQHiFF0B4AYRXeAHhFV4A4RVeQHiFF0B4hRcQXuEFEF4A4RVeQHiFF0B4hRcQXuEFEF7hBYRXeAGEF0B4hRcQXuEFEF7hBYRXeAGEV3gB4RVeAOEFEF7hBYRXeAESh/df//771/+QfxVeYNz+0q8/h/8j3v9PAAAAAAAAAAAAAAAAAAAAAAAAAAAAAAAAAAAAAAAAAAAAAAAAAAAAAAAAAAAAAAAAAAAAAAAAAAAAAAAAAAAAAAAAAAAAAAAAAAAAAAAAAAAAAAAAAAAAAAAAAAAAAAAAAAAAAAAAAAAAAAAAAAAAAAAAAAAAAAAAAAAAAAAAAAAAAAAAAAAAAAAAAAAAAAAAAACgChMI8D/5qMHv5hDg//BRA+FFeGEwB5qA8ILwIrxQsb0T4SXCfzn2aYOPThrhJcLzxqcNPmqElxBHwgvCi8ULHjUgvCC84FEDCC8WLwgvWLzwSM+EF+EF4UV4QXhBeEF4EV4QXhBeeJgnwkuIjfCC8CK8MFh432sCwgvCi/BCxfaFlxCN8ILwEmomvPBZeN+IAhHh/cWnDYQX4YVh7DUXooDwgvAivCC8ILwgvCQL73/zaYNPhBfhBeGlQqfCC5+F91dRQHjB4qXC8L72YYNPTlaiQP+mwgvCS6znwgvCS6yj5n/1YQPhRXhhIK5dIrwgvAgvCC/sHt5jHzYQXoQXBuK+OxE2wgvCi8ULg9lfCi8WL1i8VBhenzX4ffG6707/ZsILwkuwRnhBeIldvE6ugfAivDAc1y4RXhBehBeEF3YOr5NrILwILwxHeOmfI8MgvFi8MKSTX2UBixdiw+voGgHhfe2jBsJLpKnwgvAS67mTayC8xDqyeEF4iQ6vxQufce0S4QXhRXhBeEF4QXhJFt5jHzX43RNnhumdI8PwZXgtXixeiLVv8WLxQnB4HV2j//D+IrwgvESabVx3B+EllpNrILwEL17hhS/sCS/CC9HhdfsH4QXhRXhBeEF4QXjJFF63LuELzgzTN0eG4Q8sXoQXLF6qC+9PPmjwRXgdXaP38L72QQPhJdLUAQoQXmK5/APCi/DCsJ6tvAkd4YXY8Lr9g/CC8CK8ILywAyfX4A/2hZfeF6/wwheeOjOMxQvRi9cJCnoOryPD4FEDwgsWL5WH1+cMhJdIM+EF4SU4vC7/wB+4747wQnh419KA8EJseN3+QXhBeKkrvE6uwR/CeyK8j7QYsTb/erl1CV8R3keH93y8LF7oJrzODD/SufBavLBjeN3+sXgf7EWr8LruDsJr8QYvXuEF4bV4gxevAxQgvBZv6OKdCi8Ir8Ubu3idXIOvPBNei7fXxSu8cEd4vQnd4rV4ITa8TlBYvL0u3o3wgvBavNGL99jHDL70VHgt3p4Xr/DCHzhBYfFavBAd3qXFa/H2ungdGQaL1+IVXhBei7fy8PqUgfBavJHPeF13B+G1eIMXr/DC19x3t3j7Da9bl3BHeN13t3iFF4LD6+iaxSu8ILwWbz3hdXIN7givM8MWb7+LV3jh6/B6Ia/Fa/FCLOG1eIUXhNfirSq8jgyD8Fq8oS8nE14QXos3fPE6QAHCa/GGLl7X3UF4Ld7gxevWJdzBfXeLt8/FK7xwZ3idoLB4hRdiw+vapcXbY3hddwfhtXjDw3vsQwZ/5L67xdvvowbhhTvC603oFq/FC6Hc/rF4ew2vI8MgvBav8ILwWryVh9dnDITX4o0MryPDILwWb/BvDFu8cBf33S3ePhevW5cgvBZv7OIVXrg7vGsxtXj7ex2v8MJd4XVm2OLtcfE6uQZ3hNd9d4u3z8UrvHBXeL2Q1+IVXoglvBav8ILwWrwVhdeRYRBei1d4QXgt3rrD6wAFCK/FGxpe193hTs4MW7z9vZxMeEF4Ld7gxevIMAivxRu8eIUX7g6va5cWb2+L13V3EF6LN3jxunUJd3Lf3eIVXgiW7QTFYv7i2vnixfmL2x6c3TicnE0+Wk8n6/X05n984ep367tMf/tf2/6PyQNc/4N+/PvvhFd44SGLN0N4F4vr/4p/3brp9FNBN5vNqvnK5bL5luv/3z/+vXmAy681rf3+D/2bqwdaX00//v0zk+nHv935Hwd99d+RYRjP4l2cTbadbeqy/Pi3O61++1s7K+EF4W1vdrVp358cAe6B8ILw7tDd4kL5bkDLm79d3v4fL2/+fv0/rjWXBYfXJwzuUPa1y9PyFuq7Yi2XpYV3JryQcPFOLd7H1ld4weLdzXOL9/F6Cm+rJ0XCC3eH90PB4T2yeFuVt5TFK7zwjfBeCG9di/fd5eqwjMXr5BoI71jC+645LGPxCi98I7wnwlvbo4bLxuKFshV9+8fiLWfxCi+MJLwbi7fV4v3gyDAIr8Ubu3iFF4TX4h1reB2ggDs9E16LV3hBeH//lVOLN3N4XXcHi9fidd0dhDffWyGThPet6+5QdngLvnZZYHhzPGpYl7J4j33A4O7FK7zVLd4Lty6haE8tXuHtafEKLyQM76lHDe1+dc3ihbKVfILC4m25eFfCC8Jr8Y4zvI4Mg/COZfFeCi8Ib1tTizf54vX5gjuVfO3yyOLNvHgXwgvCK7yuu4PwJgxvjh8na8oIryPDkDC8G4s39eJ1+Qe+Gd4Li7e28PZwdG0uvNBleNcWb3WPGg5LWLxuXcI3w1vwfXePGlIvXuGFb4d3JbwWr/BCKOGtbvH2cYKiVXgdGYZ04Z1ZvG0Xr/CC8FbzcjKL91HhdfkHvuGZ8Nb35ZrwgvDWE953Fu8j3nEkvJAuvKcWr/CC8Fq8ScL7toTwOjIM3w5vY/FW96hhLbxQ+OI9EN7aFu9FAb8x7OQafG/xCm91i/eihMUrvPBN+8Jr8Vq8EOtpsS/knVq8xRxdE17oePGWGt4ji7eYN6E7MgzCK7wZFq/wQr7wbjxqSL54fbrgG/aE1+LtJbxuXULC8HrUUM6Z4RbhXVi8YPF61ODIMJQT3jfCa/EKL8SGdy28tS3ezo+uCS90HN4L4a1u8R4O/xvDbl3Cd8Jb6n33mcWbevEKL3xHseFtLN5ibv9YvNBxeFfCK7yODIPwFvpysiSPGt4JLwhvPeG1eB/x18/JNfimZ8JbW3iLWLzPhReEd1Q/1fB2+PC+El74Tngb4bV4+7h1Kbxg8Y7py7W3JYT32IcLvr14XwhvbYtXeKH08JZ57XJq8RZz7dLJNejYk0LDe2TxlnNmWHihW0+FV3gtXohV6tG1jUcN5dz+EV4QXos3NryODIPwCm/w7R9HhqFje8LrUYMjwxAd3jfCW9vibSxesHgt3rGFd2HxgsVr8bp1CcKb8eRamme8wgulh/etyz/VLd5D4YWilXnfXXgLCm+rdxwJL3xn8Z4Ib31frg2+eIUXvqvM8J5avOUcXbN4ofPwroRXeLs/uebIMAjvmB41dH37p9WjBpd/4HvhbYTX4nVkGEI9s3jrW7xvh3/GK7zwvfBavLUt3gLC+1J4IV94pxbvLo8a3g7/qOHYRwuE1+J1ZBgKCm+J992PhLeco2vCC117UuTiPfKoIXV4nVyDe8Jb4pnhjcVbTHgdGYbOPRXe+sK7snihaGVeu9x41FBMeNudXBNeEF6L18k1EF6LN8t9d0eGoXNl3v6xeLM/avDJAuEd1+JthBeE97EWFm/q8C68Bx3yhXcmvKnD69YlZAxv41GD8ELFSrzvXmh48yzeQ+GFshdvgdcuT4U3dXjduoR7nAhvfY8aDof9jWHhBeEd3+L9MPTife2DBd8N70p4q1u8H4ZdvG5dgvCObfG+E14oXIm3fyxeixeEV3hzLd63wgvC+0gvhTd5eI99sCBbeKceNaQOr1uXkDC8Rxav8ELNnhR43114C7p2KbzQR3jLu3a58aghdXjdugThtXjDr7v7XMF37QtvfYt3ZfFC4eF9L7y1Ld7VsIvX5R8QXotXeEF4Ld5E992FF7pX4u0f4bV4QXjdukz1qKHLo2vCCyMJb2PxZg6v6+4gvMLr1iWURngrfNRwKLxQ9uIt7r77qcUrvFD54r0QXou32yPDr32s4PtOhLe+xfthyMUrvCC8Y1y8HyxeKDu8K+G1eLtcvE6ugfCOL7zvhl28wgv3Ku/2z3OPGlI/ahBeSBjeqcVbztE14YVxhPdIeFOH96X3oIPwju5Rw8DhdesS7vVEeC1e4YXo8JZ2331j8ZZz7VJ4oZ/wHghvbYt30PA6Mgz32hdei9d1dxBei7eY2z/CC/2Et7Rrl43wFhNel39gJOH1qKGgM8PCC33Ys3gtXosXosNb2O2fhfCWc3RNeGEc4S315FqmRw3DhtflHxBei9fJNRBei1d4YeRKC++pxVvOtUvhhZ7CeyG81S3eQcP72ocKhNfidesSClPameHnwlvO7R/X3WEc4fWooaDwtvrr5/IP3B/elcVr8bruDqMOr2e8Bd13d+sS+lHa0bWXHjUILwivk2vpHjW8HTK8xz5UILwjXLwDhtd1dxDecT7jHTC8bl3CA5R2331j8ZZzdE14oa/wHghvbYt30PD6TIHwCq8jwyC8OS//pHrUsBpu8QovPMC+xVvf4l1ZvFB4eN9bvMLryDAIr0cNJdx3d+sSerInvBav8EJ0eIu6/VPsdfety+WNy7EcXRNeGEd4yz0ynKjCA4Z34eQaCO+ONqvV6urWPT9ucXnt3XL04XXrEh6krPAO+jrezebqk+l6Pbk1mxwcfP0SicvlPQ8kLgcN76HwQtnhvRhpeH8fs1frq+n0Y2cPvvVjzR//7yfT6fTqd5sb33tCMUSDhReEt5jw/r5oP+3Zxzy9/KpLZ2dnk5v/b1vjz0I8eIEHDe9rHynIFt7n/dX2etMeTGat/5k9KFWHh4eTz0K8ajZ3Ffiy9/B+GOr3JxwZhgc5qTu868nh4aKTH3R7dLfOthW+bfBXQ/i6v8WH13V3GEd4O3/U0NmbKHZr2OHZxwT/ocD9/CDEkIvXyTV4SHhXVS/ezsK76KRlN4+Eb/q7Wn32UxAVLV63LkF4i1m8X9n2d9VTfIdbvMILD/KsqPB2fnLtRVmL9w/7d/LbL2Z0+siho6Nrwgu9hbepObzd/afKeV9ebdtbTXiPfaRAeEtevJ+G76aa8Lp1CQnDuxnf4r0ZvV2H90J4oWhlHV3rOrwXGRbv+ZnwgvDWE95fUyzemsLrEwXpwtuMcvGeVxNety7hQfaFd/DF23l4O7n948gwCG/Ni3fT7THNjo6utQmvyz/wsPC+F96hF++m28V7OdjidXINhLfDP1uvi/eoxMUrvNCbou67L8oN73mi8HZzdE14ocfwviknvDOLN3l4Xf4B4T3IsXhfVhJeJ9cgYXjLfQ96v4u38/AeCi8UraSja12Hd5lk8b4SXhBeizd28dYT3tc+UJAtvM9H+oy36/AuuwjvXHhBeCtevGddL94PwyxeR4bhgU5qDu88x+ItMrxz4QXhHfQ96P0u3s7fkjPY4nVyDR4W3pXwDr14zytZvG5dwgOVdGb4pcVbzuIVXhhHeLu+dXmRZfFuCrx22eqv37EPFDwovI3wDr54Kwmv6+4gvONdvBcWLxStpKNrm7Eu3iPhBeEV3tjFW014fZ4gXXi7/v2JN1kW70vhBeGtJLzvsyzel+WdGXZkGHq0L7zVLd5Orl0KLwhv1Yv3VSWL18k1eGh431cb3oMsi7fr90IOtHjduoR84V0UHN5Ui/dyoMUrvPBABd13n1m85Vy7dPkHeg3vG+EdevGedbx4O7j9I7wgvHUv3rMqFu9ceOHB4S3mTeid37qcZ1m85+Vdu7R4oU/CO/zirSW8r32cYOzhXY128S6FF4T3oa9zLTe8PS/eTXG3f1r9B6fwwgOdCO/wi7e88LruDsI78Fshcy3ed0MtXifX4KHhXQmvxeu6O4w0vC/Hu3iPijsz3Oo/OIUXHqicM8NH4128Rx0/ang7RHiPhBeEN9HifVncmeFWi/fYxwkeGN5iXsjbdXjf5Fm8LztevBfDLF7hhQeHt5TFuyk4vMkWr/BC2co5urYZ7+J9JbwgvFWE932exVtJeH2aIF14Cz65lm3x/jrEWyGFFx5sv9rwHox38a6GWLyODIPwdvrn6nnxnpV2dM2RYRDe2hfvWRWLV3jh4eEt5NrlwuJNvXhnwgsPVsyZ4c5Prs3zLN7zGh41uO4OwttpeM/7Dm9ht3+cXAPhrX7xbjq+7+7WJRQe3kLehH465sW7sXhBeCsI7yrV4hVeGBXhrW/xLgcJ72sfJsgW3pIv//S+eI8KW7xz4YVenQjv8Iv3qLBrl44Mg/BavMHXLt26hJ7D+6vwDr54Xxa2eOfCC/2Gt5CjayVf/ul98b60eEF4hTd28b7Kv3hdd4dHeCa8wy/eV4Vdu2z11+/YhwmEN9XiXQovjCm8hbyQt+STaxav8ILwRofX4hVe6NIT4R1+8Z7VEF6fJXiwUm7/lHyAovfFe1bYmWHhhXEs3qLDm23x7niCotV1dwco4BGLdym8gy/e0m7/tHpU5LMEo3/UMM+0eM/zL163LuFR4S3i9k/Rl3/6X7yb/ItXeEF4cy3essLrujv0bE94K1y8h+GPGlx3B+FdjXrxNuHhdXINHhfetfAOv3gb4YVRhbeIExSn4168RxYvjIrwFrB4j/Iv3p98lGDs4b1ItniLOkHhujv0rYyja0WfXOt/8XZ8+2cZvnhd/oHHhfeixvC+ybV4y7p22erLUeGFdIu36AMU/S/eV9kfNVi88LjwrizewRfvq+yLV3ghYXgt3tzhnQovPMYz4a1v8a7jHzUc+yjB2MP7ftyL9yJ68Tq5BsLbcXh7X7xlHV0TXug9vEW8CX0z7sV7ZvGC8KYP74HFGxveX4QXHmFfeIdfvOdFnRlutXh9kuARyjgz3Ix88ZZ0gsKRYeh/8S5rDO882eLdlHTtss1/YxFeSPeooezLP/0v3vPsi1d4Id/inVm8BV27FF7of/G+F16L1+IF4S3qAEXCxXsYG17X3eFx9oS3vsXbRIfXyTUQ3nSLt6Sja8ILAeEt4L776dgX75HFC+MK70V94b2weB0ZhpKdCG8Bi7egN6G3Cq/3oEO68D4f++It6eia8ILwDn+AImDxlnRmuNV/YxFeeFx4CzgzXPbln3SLN/xRg/DCY8O7Et7BF29JjxosXhjHowaL1+IFizd5eN+Pe/HudoLC4oX+PRPe+hbvOja8UyfXQHjTLd6Sjq61+usnvPDI8A7/Qt7N2Bdvx2eGL4UXCg9vU194DyxeR4ahZE+Ft4DFW9DRNeGF/pVwdK3sAxQBi7fj++6X4eH1OYLHhXcpvIMv3pJu/7T5byzCC49dvIO/CX1m8ZbzqOGFxQujeNQws3gtXrB4c4d3NfbFexm8eIUXhHeVcPEWc4JCeCHAnvDWt3hjwzvbOLkGwptv8R6lXrxuXUK+8BZ+ci1i8XZ9dC128QovPDq8a+GtbvF+iA2vI8PwyPAO/yZ0i7egM8PCC+MI77TsAxQRi3eaefF6Dzo82vAnKAo/MhyxeF/lXrzCC48N7+CL98jinRYT3rnFC6NYvEcWb+rFK7wgvJ3/fNx5RHi7fUvO2uIF4U0d3oSL90J4oWjPhLe6xXsZHN5jHyMQ3oSLd5l38bruDgnDW/jJNYv33v/gFF54dHgPhHfoxdv1meFVaHjduoTHGv7MsMXbdXgvhReENza889Ev3ujw+hTBIw1+dK30k2sxi7fJG14HKKBFeN8L7+CLt5Sja44MQ0x4l5Ut3lXGxdvt0bV3Fi9YvBbvfbp+1HAYuHiFF4Q34+Lt+Mxw+9s/wgsh9oS3gMVbzH33NuF1cg2E1+INXbyuu0PC8JZ+ci1o8Xb7q2sfhBeEN3N4My7eyPC6dQmPD+/JWngtXuGF2PBe1BXeNzkXb7e/QREYXu9BhxaGDm/X193fW7zBi1d44fHhHfiFvEcWbzmLd27xgvBavO3Cu/aoAYTX4v2+o45/Z/jC4gXhtXjvu/3TaXgb4YWyPRPe4Rfvecdvg19FhvfYhwiEN+HivXkxpPCC8EYp/eRazOI9P391tWo2CcPrujtYvN2Hd3Ee5WwyWV/dWF1rNpub/9Hq76vA8Lp1Ca3Ce2DxFrB473Z41ubvZ44MQ9mGPjPc9ddK87yLd3itwuszBNnCOyv9uvv8XHi/+x+cwguPN/TtH4u3HC7/wDjCW/wBCotXeEF4ox81WLzCC8Jr8Vq8kNye8Fq8uyxeJ9dAeC1e4QXhjQ3vhcUbGt6F8EK+8BZ/69LivefnsN26hDbhXdcU3rXFGxteR4ahTXhPqgrvG4s3OLzegw5twntRU3jfW7yh4XWAAloZNrzFX3cf0+KdCy9EhXfQF/IWf+vS4hVeEF6L1+IF4a08vBbv98N77CMEj/dMeC3eHRav8ILFa/EKL1i89/yqf+kn1yze73olvOBRw4HFGxpe193B4l1ZvLHhdWQYWnk66H334m9dWrzCCz2Et6kovD2sd4v3++H1CYIW9oXX4m3/HnThhXbhHfCFvDOLN/fiFV5IGN7G4rV4QXiF1+J9RHhd/oE29oTX4m2/eIUX0oX31OIVXhDe3Iv3wuIVXhDe2MV7YfGGhteRYbB4+7iYbPEKL/QQ3nU9i/eNxRsbXtfdoV14h7x2Wf6RYYv3++F1+QeE1+INfg+68EIrQ4Z3avGmXrzCC23DuxJei/fc5R8YS3iPLF6PGmCMngmvxdv6UYPFC8Jr8XrUAMJ7z2+cFn/r0jNe4QWLNzq8Fq/wgsUbe2TY4v3uT6W4dQnCO7d4Q8PryDC0NOSZ4QThtXi/G16fH2hlX3gtXuGF0SzehcWb/D3owgttF+9gL+SdWby5F68DFJAwvI3Fm3vxCi+0sye8Fq/wgvBavMILwtuPBLcuLV7hBeGNDq/FK7zgUUPskWGL93v/2rh1Ca3D+6aWxfve4g0Nr+vu0D68a+G1eB0ZhtDwDnft0uIVXhgp4bV4z51cg+DwDvZeyKnFm3rxeg86CK/FG754hRdaGu5N6EcWr/CC8AqvxSu8UHV4ExwZtniFFyze6PBavMILFm/skWGL9zueu3UJrcPb1BLeucUbGt5Xwgvtw/tCeC3eNo+KnFyDtoY7M2zxCi+M1FPhtXhbvY5XeMHitXiDF6/3oMMO4R3oTegzizf34hVeSBjexuIVXhinvVrCe2HxCi8Ib2x4m6vObTb/X2f/7Dar7/79Dler679//U9qfW2ydXYmvCC8j/yN085dLrv9+7uiLS+vNc1qG+fpZHIovCC88eHt2rtMLpvN1dUkMLyODMMO4X0jvDWE91ZzdRgU3oUjw7BDeD8I7zcsE5b33eowJrxuXcIO4R3q2qXF29Mjh4uY358QXtiB8Na1eJuVxQsWr8UbG96gxes96LDL4h3oTeivhLec8LruDuMI79Sjhn7Cu7Z4oXhD3f45snj7Ce8H4QXhzRvejIv3UnghQ3gHOrq2sXgtXrB4hbeC8IYtXkeGweL1qCH6UYPwgvBavB/DexgT3pdOrkF7Twa6727x5g6vW5ewg6HODFu8/YS3zUtyHBmGYPvCW9PibVZRi9d70CFdeBcWb0+L1wEKyBDeQU5QzCze1C8nE17YxZ7wWrzCC9HhHeT2z6wRXosXLF7h9ajhEbcuhRfSLd5Tizf163jnm9c+O5Bt8Z5avLnD6/IPWLwWb2x4F8ILu2jeCm9F4V1bvJBg8Q5z7dKjhtwvJ3NkGHYivFUt3g8xi3fmPeggvBavyz+QKbyDnKCYWrzCC8IrvFX8OJnwQgbDHF07snhzn1wTXtgpvI3wVvSM99DiBeHN+x70nIv30OIF4U0cXov3e0eGfXJAeC3e1ifXWi1e4YVdPBHeesLbuO4OKQxzZtijhtwHKBwZhp3sC29Fi7dNeB0ZBuG1eBMcoBBe2DG874W3ni/XnFwD4U18ZHg0jxqEF8INcvsnw63LlI8aLoQXcoT3jfBWs3jDTq4JLwivxRsc3tc+OZAtvKcWr/DCmAlvNYv30q1LsHgt3kpPrgkv7Lp43wpvNYvXkWHIYYhrlxZv9iPDwgvCa/EGL95jHxwQXovXkWHIFN4Brl2+FF7hhTEb4szw1KMGty5h1OEd4ATFkcWb/Nalzw0Ir8XryDAIr8VbdXhd/oHdDHHtciO8jgyDxSu8FTxqCDu5Jryw8+J9Iby1LN6gVzW47g47h/dAeC1e190h0r7w1rJ4HRkG4bV4hRf4Rnjjr102Fq9blyC8oRYWr/DCqA1w331m8Tq5BiMP7xvhtXiFF4TX4m0T3rXwQhLx4T0V3nJex+vWJQivRw2ODIPwWrwOUPzxp1KEF3YO74XwWryODEOoE+G1eB0ZBuEV3pLfgy68sHt4w69dPveowa1LGLf4M8MWr/CC8Dq5ZvE+Krw+NbBreMNv/7y0eF13B+G1eGtYvCvhBeHNHd5xnFxz6xIGEX/ffWPxOjIMwiu8Y128L4QXhgnvgfBavE6uQaR94a1j8Ya9B114QXiF1+IF4a3iyHDCRw0WLyQK73uL16MGR4YhUvyZYYs3eXhf+9RAtvAuGou3l/C+desS8oT3jcVbRXgdGQbhzX3dPd2jBkeGIRPhrWTxCi8Ib+73oI9k8c6FF4YJ74XwWryODEOoE+GtY/G6dQnCm/vWZbrFe7kUXhBei9fiBb4V3pXFW8PidWQYEok+M2zxOjIMwmvx1rF4z4UX8oQ3+PbPS+HNfetSeCFfeI88anBkGMbuifDWsHgdGQbhtXgdGQa+E97Y2z8bi9fJNRi7feGtIrxOroHwZg/vUniFF6oJb2Px9hLeX4UXMoX3vfBavG5dQqToa5ee8QovCK/FW8XifSu8kCm8b4S3gsUbdnJNeCFdeBcWr1uXQGx4Zxav6+6A8I528ToyDIOF90J4LV5HhqHi8J4Kr5NrwInw5n/U4MgwCK/Fm2LxvhBeGEV4n1u8HjUAsdcun1u8jgwDwltFeB0ZBuH1qMGRYeDb4W2EN//idesSUom9dvnS4nVkGIgN75HF68gwEHtm+MjidWQYEN4KFq9bl5BL7LXLjcUrvIDwWrzCC8Jr8ZYb3tc+MdCB2GuXjcXr1iUgvMIrvCC8HjUIL9Qe3jfCm37xunUJwmvxJji55tYlDCf06JrFm3rxunUJXYU3cPEuhDf54j32gYFsi3fmUYOTa0Ds0bWZxevkGiC8o128wgvCa/FmCK/PC3QT3sCja6cWr1uXQOy1y1OLV3gB4a1h8a6EF4TX4nVkGPheeANfyPvc4i3m5JpblzCgyDPDzy3e1Iv3SHihq/BavMnDG7d4Xf4B4fWo4XbxXkQtXuGFbuwLb/rF69YlCK/FK7yA8Fa9qR0ZBuEV3ujwOrkGyUReuxRe4QWCw3squH08RI4Lr8s/kC+8s0mGvwXYdBveD8IL2cIbee0yjfNeFRBeR4ZhSKH33dNY5AnvpSPDkC+8Fm/44m1SLl6Xf0B4Ey/eTn+owZFhyOdEeOMXr1uXILyELt4z4QXhJXbxvuo4vOdR4fVpAeHNuniThtfJNehM5NE1i1d4AeEdYvG+TBpel39AeNMu3ped/hjvZdTlH+GF7sLbyGzw4j0aPrxuXcKgIo+uWbw9hNd1dxBeizf4HTlxi9flH+jKvvBGL96OX07m5BpYvBav8AIWb2GLtxFeEF6djV28WcP72qcFugrvUnhzL963wgvZRB5ds3i7fzmZI8MgvBbvA8LryDAIr86GLt5XHS/eqFuXwgvCm3bxlhDeNpd/hBc6DK8X8mZevJeuu0NC3oRu8T5o8br8A92xeIMX78uci1d4weLNu3hfunUJwiu8sYv3qONHDcILCcP7q86GLt6jrIvXZwUs3rSLt9vX8bruDhnD6+ha7OLduHUJo+faZfDi3SyFF4RXZ2MXr/CC8Apv6sXrujtkDK83occu3mb4I8Ouu8PAnKAIXrxNzsXr8g8Ir8W7w+IVXhDeUS3eswJOrp0LLwwcXkfXQhfvmSPDgMUbvXjf5Qzva58VsHiTLt5XWY8Mew86dLl43f6JXLyvsh4ZFl7ojqNr0YtXeEF4hXd0i3cuvCC8Y1q8L3OeXBNe6Da8a6ENXLwlhLfFvyKuu0On4fUm9MSL99KRYUhJeEMX71HSxSu8ILxpF++RI8OA8GZevMILScPrzHDk4u36AEVUeH8RXrB4sy7eTdLF6z3o0Gl43f7JvHidXIOMHF2LXbzCCwivxSu8ILxVL97GkWFAeGMXb9Ijw1PhhS49dYLC4r2Xyz/QKbd/IhfvmSPDgPDGLt4zixdwdC334g27dfmTTwpYvEkX76usR4aFFyzerIv3VdbF6z3o0O3idfsn7+J16xJScnQtdvEKLyC8o1u8c+EF4R3T4n1p8QLCG7t4kx4ZFl7oOLwn7rtnXbyXcdfdj31SoEtOUAQu3hKODLvuDsI7qsV7lHTxCi8Ir8Xr1iXkDq8zw3GL15FhYBteb0KPW7yODAORjxpm604dWLxOrkFaUbd/njeXyw7//j7n4s0ZXosX0oa3U+8t3nbhdesSRhTe0zzh7W3xdn2AwqMGEN7Ixfsm5eJ13R248XR1kHHxvkn5jDfrdXcn16Dj8DbCG7V43boEtvZzhvfCM17X3UF46wmvI8N/DK9bl9B1eN8Lb9DifSW8gMUbu3izXnf3HnSweG+sLF7X3SGtPeFNu3idXAPhtXgdGQYqDm+TcfFOLV5AeGMXryPDwG14T3KG9yDh4nVkGPgY3rXwBi3erEeGhRe6FnSCYmbxOjIMCG/2xevWJaQN70p4ky7eoPCeCi8Ib98nKHpbvI4MA8IbvHi7PrkWtnh9SqBjz4Q36+J1ZBiE1+J1ZBgoKbyLjsN7kXHxOjIMRIZ33nF43yRcvI4MA7eeWrxBizfrybVTJ9eg+/AeZFy8FxZvVHhdd4fORd3+sXgdGQaEN3jxpg2vW5fQfXjfC2/GxXvpyDAIb2x4V/kWb9Zbl96DDmnDu0kT3izPeB0ZhrT2hDds8Tq5BmQOb5Nv8Xb9qMGRYRDe4PAejH7xfrB4QXhrCe+i4kcNrf7KHfuUQNLwHo1+8U6zXncXXug8vEFnho9Gv3iPXHcHPoX3QnhDFu9RzsUrvNCDoPC+tHiTLl63LkF4by3HvngvXXeHzOGNeSHv8zS3fxbC6z3oILyx4XXdXXihb8+EN2bxOrkGBIf3NM3RtYqvuzu5BhZvmS/kTbJ4VxYvCG/w4r3ItnjPsi5el39AeC1eR4YhvafCG7N4HRkGPtmPue8++sWb9dal8EIfizfmzPCs4/D+avG6dQl5F2/O8K7GvngdGYbU4X0vvPkWryPDILz378ixL17X3YHfRJ2gGPvi7fryj/CC8EYv3mbsizfs8o/wQt7Fm+baZcW3Llst3mOfEfCooe/wLnKE161LEF6L15Fh4MHhPRHeiMWb9OSa8EI/4V1nDO8y2+J96cgw8Juga5cWryPDQPLwvk+2eB0ZBj4Lb8x7IY+yhHchvF+E1ycEhDfr4u361qUjw5BZ0AmKlxavW5eA8GZevG5dgvDeK82Z4UWK8Dq5BsL7gE9wlvCeC6/wgsVbw+I9E17gd0nPDP+abPE2rrsDn4X3hUcN/S9e192B3wVduxz54k173d2tSxDe/m//5Fi8jgyD8D7gd0/H/VMNWU+uHbn8A/2E1333dIvXrUvIbU94R7J458ILIwvvYtyLt+vwri1eEN77dRze/36QavFOCzgy3GrxHvuEQOLFm+UEhSPDwgsWb3B4+3nUcCS8QHx4x714HRkGPg9vzvvuS4vXkWHIK+d992yLd5lz8f4P4YV+wnth8fYe3o3r7kD68Pb2ZLqfRw3dvo73nSPDkD28zgwHLN7hjwy7dQkFeSa8owivW5cwvvC+HPOjhs4v/0QtXu9BB+G1eJ1cA+Ed7k3oF5nCm/Xyj/BC7vBmOTPcz6OGbn9/QnhBeC3eWk+uCS/0ZF94ew/vK4sX+NzTlTPDycLryDCkX7zODPf+jDfr4nXrEoTXowZHhqGW8Lp2OYbwzoUXyuHMcP/hnS5zLl63LkF40z7jPSrgyHCrV8od+3xA5vAuxrx4jzpevC7/gPAO8ULevn4ILsXreIUXhPdBOl68/114hReEN3bxNuMNryPDkD+8J8Jr8QovxDr5ILx9h/ddysU7c2QYelu8zgz3HN6zbsMbduty4fIP9LZ4nRnuO7wdv6rBkWEQ3gf++umIF28B4X0hvFASZ4b7Du+rpIvXkWEQXuF1ZBiE91FejTi8y47D6wAFCO+DPBde4QViw9v1m9DXecI7FV6givBe5Alv1y8nE15Iz5nhZOG1eCG/p80L4e01vF3/4lpUeJ87Mgy9Ld4m5eJdjTa8l25dQgXhdWY41+J16xKE94G/f9r1m9DThLfjnyZz3R0qkPXa5SRJeF9tug6vW5cgvA98x2DXrye77CW9nb8gZ9p03F3hBeF98OLtOrw3v0QxKT28k81l1911gAKEd7AX8t68G7JZH5Qc3rOrZed7V3hBeAcNbw/p7fYpQ9N0nl23LqGO8L7JG97Ov2Xr8ilD08PctXihjvCevE8d3uWyy/R2+ZSh6SO7Fi9U4ST34t3+gMNBYeG9ecrQy9yNXLwOUECPi/cie3hvfpHtoKDwvto0Pc3dyMs/jgxDn4s35bXLnl7Q28k19x7nrluXILwFhbeb9Hbzswz9Zdd1d6jDs1rC2zQ7f8u26OLhbvOuT2G3Lmdexws9hjfmTejTgPA2O3/L1sHD3eW7nsPrPeggvAO9F7Kf9JaeXeGFSsLb1BTeprk6GORRw9lV708ZhBcs3kLDu9O3bLtld9l/d926hCo8aWoLb/v0Lnb5Ti1g7kYu3ufCCx41PO5R7zpw8U43Ydm1eKEO+zWGt1m1+pZt0fY7tZCnDLGXf567/APCG/ItW8EPd6NvXQov9BrelNcue0nvolV2m3fvCg9vm8X7UnhBeFuV96rP8J5dbX9yd/mu+PC2+lVD4YX+7AWFdzNAeC8f+S3bo8J7tYleu6G3Lo+OfTagx/DmfhP6vat33Ut4p4Nk1wEKEN4M4X1MehePy+7ynfAC7cL7pvLwNqurSafhnV4NlV2Xf0B4k4T3Jr0HnYV3Ev+jDEMs3kZ4oUdjCO/N77IddBLeyXBrN3jx+mSA8O58jvgB6V3cn93NgGt3u3gPoxavTwb0KOjM8FEzuNXkYKfwTob4wd2hFq/LP9DnM97xhHe5vOdbtsX3z6ltlgNnN/DWpfBCv4v37VjCe/MrFd9N7+K72b0c9iGD6+5QU3hjrl1Om6b49N6zdpvLd4OHN+zWpfBCn4LODJ82pbhcTx63eD+u3eW7dyMKr9fxQq/hXY0svM3lt9L7vew2794VEd5z4QXhTRje6/Ha3PmzZWWvXbcuQXgzh/cb6b3rpQzlrF2Xf6Ci8DZjDO+d6f167TZFZTfy1uVrnwzo0ZORhveOm5h3vYKsmKcMt4v3V+EFi7fsExQP+AmHb4T3rLSHDMGPGpxcg17tjzm819Z3/DTZ2XRZ3tp1ZBiEN8Ptn8eld/H7DcvLIrPryDDUE96DkYf3U3oXn58OLu4pg8ULwpvuvZD3p3fx+zdqZWbXrUuoxZ7w3p5mm6wnn8ZuodkVXhDeusL7mXfFCnsdr/BCz+F9L7xf/GbFO+F16xLqCO+R7DoyDHwK7xuLN8FThuAjwz4Y0Kug8B5Zu3kOUAgvCK/ufgzvMiq8DlBAFeE99ZjBrUvgo6Azw1OLN9GjBuGFnsP71uJNs3iDfmPYkWHoO7wXwptl8Ubdupw7QAHCa/G6dQlVeSa8eRav8EIl4Y25djmzeN26BITXo4Zvhfe1zwX0G95GeJM8agh7D7rwQs+ejP72T55HDY4Mg/DW9ZYci9flHxBei9etS6jUvvCmWbxrixdqCe8L4U2yeNcWL9QS3pija0cWr5NrgPBmW7zCC5XYE94k4b0UXqgnvK5dJrn8E3aAQnihkvCeWrw7P2qICu/GxwKE1+KNPUAhvNA3R9fSPON1ZBiEV3jdugRKDu/Mo4YhLv+4dQlFOhHeJIs36nW8wgvCa/HuEF6LF8oM74XwWrxfXHd3+QcqCW/xb8kpfvE2bl1CNYLODBd/gqL8xXshvCC8Fm+dByiEF/oP70p4Uyxety5BeGt7S47FK7wQJuro2pHFK7yA8OYKr8s/ILweNSQ4QOHWJRQp6szwqcWb5PKP8EI14Z1avMILfArvgcWbYPFehj1qeHnsUwHCK7yhl3+cXIPeRZ0ZnnnUkOQAhfCC8Fq8wgv1hfe98Fq8bl2C8Fq8wgs1Cwpv6W/JKX7xhh2gEF4ICG/Q7Z+NxevkGhAaXot3gAMUTq5BoU6E1+IVXqgzvEcWb4qTa3MHKCAgvBfCm2Dxhr2O15FhEF7hdXIN6hN17XLqUYPwArHhPbV4c4T3tc8E9B/elfBmWLxvhReE1+Kt8/KPW5cQ4ElQeGfCm+IAhfBCRHgb4S3/UUPcAYpTl39AeC1eJ9egOlHXLgv/neHiF++h8ILwVvZ6Mq/j/RTeY58JCAjvgcVr8ToyDFWG98ji3SW8506uQT32hDfF4hVeEF6Lt9LLP0c+ElBReJ9bvBkOUAgvhIQ36NrlqcWb4QCFW5cQQXgThLfVy8kcGYZywxt0+2fmUUOCt0LO/4dPBAivxRu7eN26hAhR1y7nFm+C1/EKL8SEN+gERdm/uuZ1vI4MQ42LV3iDf2PYyTWweI88amhpuVqfW7xQk6hrl2X/BkXRzxmu2uxdixeE9/ozfWXxtvqltXW77rp1CcJ77Wpj8T72KUNzNTlvaS68UGx4V2HhnZ9dWbyP+lLtctXyMYMjw1C0J4Hhnc+nG4v3ET/McLU+b6/VL3a7/AP1hXc+K/N5w7LEpwyrXbLryDCUHN5mHmtyZfE+5Eu1ZoenDG5dQtn2o8Nb5POGZXHZ3XHuCi+UHd6D8PKW9/MNpT3c3XnuOjIMwvv1tfeNxfvt7O4+d51cA+G943mDxfutpwxNF9kVXijY3kDhLSu9y4Ky28FTBuEF4f2Gxcbi7ecpQ+t35Lh1CbWH9+ZRr8X7RXabrrLryDCUHd738wFNLd7PnjKsDrvrrsULBRs2vIW8p3dZRHY/nHfJrUsQ3qKfN1T2lMGRYSg9vG/mQzvbjHvxXnb8lEF4oXQnw4d3fjAd8+LtI7uODEPZ4b2YF2A2HevibbZPGcoIr8s/MKrwzueTzRgX72WHvzHh1iUIb6b0Lit6uGvxQvmeFRPeAZ83DPdwd31+LrwgvGNM73Koh7uHfXXXrUsQ3sKfNwz0cHdy3h/X3aHk8K7m89GnN3rxLm+eMkwOe+yuxQsle1JaeOez+NtAA2R33Wt2HRkG4S39IGbk4r3s/SmDI8MgvAnSG53d9XnvLF4o2ABnhh/2vOGqxsXbRDxlaP86XuGFqPAezAtN76a2xbsMy64jwyC8LdMbdgZ+GfUTZAEPd51cA+FN8ai3poe7wgvl2ys5vPN5zKPeZUUPd13+AeFN8ah3GfCUYXUVl123LkF4i3/UG/FwNzS7Fi8I786PejeJF28T+3DX4oUEBr92WcCj3mVt2XVyDYS39PT2+3B3fXguvEDC8F6nd5Nt8Q7wnZrwQgonF/MsenvUu+zvKcMg2XVyDYS3ux9w2GyyhPey6fWyj8s/ILxhTjc5nvE2t2fbz4UXSB/e6/QmWLzb/0evzgc0F14o2bNk4Z3Pp4WH9/Ypw+GQ3XVyDYS3a5uCw1tCdp1cA+Ht41u2UsM77HdqFi8kCe9qPh97epe1fKe22+J1gAKiPEka3i6/ZVt2md3D86ThdXINhDfwW7ZlZ9ldFZFd4YXC7ecN73w2LSa8lyVlV3jB4u3zjZGbIsJ7m93J+Xnm8E6PfRogavEmeCFv3+ld1vGjDE6ugfBGPW/YPb3LWr5T2+kdOa67g/A+YvROBwxvM+RLyCxeyGkvf3h3/pZtuWN2J4Vl18k1EN6Q1Xs1QHiL+05NeEF4szzqXe6Q3fXheYHa/Cv4X3wYQHjj0rts/6MMRWbX5R8o3cn7eS1mLe+yLat5uLtLeC1eiNPUE962P+Dw2PBeXhadXYsXLN4E37I9rrvLbXbX5+d1hff/9VkA4W397pyrXhdvyd+p7fQ6XuGFwPBeVBbeFo9668quk2sgvEO42vSzeLfZvSo8u44Mg/AOs3ofld5HfKeWILtOrkHxnlUZ3ptv2TadLt7if5Rh18XrdbwgvJHfsqX/wV0n10B4s6X3od+pnZ8LLyC896V300F4k2XX5R8o3v5qXrWHPOpN96Zzixdye1J5eOezzWaH8F42WX6UweIFi7cgp5vW4S3zwEQv4T32WQDh7TS9q1bhzZnddq9qcGQYQsN7MILyzqePD+/tU4Z02W37HnThhcDwNqMI73fT+821u5okzG7L1/EKLwhvDzYPD2+6nyDzHnTIZG884f1mepc1ZdfJNUgQ3uWIwjufbR4Q3tsf3E2bXYsXLN4Ej3qXf1y7mbMrvGDxZkjvMvOvqQkvJHQytvB+nd5lTdl16xIyhPf96MI7n03vCm/S35dw6xKEN0d5v/yWrabstvuhBuEF4Q0w2Xwe3nqy68gwZAjvej6X3kT3JfpZvD/5JEBkeC/GGt757LP0VpPdlq/jFV4Q3iBnH09UVJRdty4hgWdjDu91eidXq6qy6wAFCG/xFmeH5+fCK7wQGt5f5yO3WAiv8EKopxfz0RNeJ9cgNrwr4V1YvMILkfaFt67F2+o3ht26BOG1eKMfNQgvCK/FG7t4HRkG4bV4g8P7X4UXQsPbHFi8ow+v96BDqD3htXiFF4TX4hVeqDu8S+G1eIUXLF6LV3ih6vCeCK/FK7wQHN73Fu/Yf3/CyTUIJrx1LV7hBeG1eDM8ahBeEF6LN3jxOrkGwmvxBr8VUnghOLxri9freH0OINQzJygsXuEF4bV4hReE1+IVXqDD8P5q8Y79p8mEF4K5dmnxOjIMwmvxRi/eY58DCOX2T1WL15FhEF6LV3gB4bV4v/J/CS8Ir8UbG15HhiE8vAcWr/egA5H2hHchvEBseB1dG/1bIYUXhNfitXih9vC+t3gtXiA0vN6Evhh7eF3+AeG1eIPD+z/7GEAw4bV4fQpAeC1e4QXhtXirDq9blyC8Fm9weL2OF4TX4nWAAir3bG3xCi8QG94Li1d4AeG1eIUXqg7vyuIddXcdoIB4rl2O+0ca3LoE4bV4Y+euxQtDcPtn1HNXeEF4Ld7w7rp1CcJr8cZmV3hBeC3ewKe7t/6rDwEIr8UbOHfnDlDAAJwZXox57govDBLe0V+7HHd2hReE1+KNfMqw5T3oMEB431u8I86uk2swRHhH/0Lexbi7a/GC8Fq8sdkVXhiCxTvSL9WEF4TX4h0ku25dgvBavJFPGba8Bx2E1+INza7wwhCeWbyjfcpww+UfGCK8a4t3vNkVXhBei/d72e2juy7/wCDhvbB4U1j088d3gAKE1+INza7wwiBGf+1ynD/LILwgvBZv9JdqwgsD2rd4x/qUQXhBeC3e4KcMW25dgvBavAE/QvZFeH0EIN6exTvOh7vCCxavxTtEdp1cA4vX4o17uPuRyz8wSHgPLN7RZld4YZjwjv3M8GK0Txm2HKAA4bV4Q7MrvDBMeMf+JvTFaJ8yCC8MZuzhHXV2hReE1+J9Ef3Hd+sShHfci/dF/B/fAQoQ3lEv3iH++MILQ3hm8Y517d449gkA4R3r4h2ouzPhBeEdaXgH+9MLLwwT3pGfGR7v2hVeGC68FxbvWLPrAAUM5OmFxTvKpwzCC8MZ+wt5FyPOrvDCUItXeMf5lGHLyTWweEf1qOFFAX96l39AeMe0eIv40wsvDGJPeEeb3fn8//QBAOEdyaOGF6X86V3+AeEdx+J9Uc6fXnhBeEcR3pL+9MILA4X3xajDG712y/pXW3hhmPCO/NrlYsTZdfkHhnIivFEWxf3phReGWbwjD+8ov1P7jZNrMNDifW/xjjS7Lv+A8NYc3kL/9MILw3gmvGPNrpNrILy1PuMt9+f1FsILwlvj4i35x6RnwgvCW2F4i/7DCy8Ib3XhLf2XAoUXBvJUeEe5dm+4/AMD2R/3ffcRZ1d4YbjwXli8I3zKsOUABQhvPeFN8sY34YWBjPyFvIuRPmUQXhDemsKb5w/v5BoIbxXhzfSH/7/92x8GCu//JrzjzK4DFDAc4R3bd2rCC8JbS3jzHa8TXhjK/yK8I3zKsOXyDwhv4vDmPNXs8g8MFt4D4a3tevDDnDpAAUPZF97qrgc/zEZ4QXhzhvdF1j/6VSO8MFh43wvvCLM7nzbNsX/3w0D2hHdUP8rwe3eFF4Q3XXhf5J2786tGeGFIF8I7sqcM89m2u8ILwzm5WgvviB4yXHd3s+3uL/69D8OFt2muJsI7nu5Ob7vb+P0JGM6zmw/h1YHwjuEhw2+PGZqff/RvfRjO3s/Xm7dZrQ+Et/61O598fMzwkwe8MKwff77+KC5XkzGmd1zZnU3NXSjG0+v0LpcjfNS7GNNThuu5e7nNrqe7UMbzhqc3zxsu1xPhrfCtDF/MXU8ZoLD0LpuRPepdjGbt/jZ3ZReKe9TbXI7rUe9YsjubLj1lgHLTe7maWLx1faf2ae7+IrtQottHvSNK70iyezN3f/GUAYpN7/YbmIsDi7eepwy3X6rJLpRr7/ZR79rirSK7H39lwlMGKD29N88bls1aePM/ZZhtnzJ4LwNkSW+zqv95w6LutTu/fcrg4S7ksD+S9Na8dueTpYe7kMvHb9lejDa82f9oMw93IeHzhtv0rscZ3uz/gfPxZxlkF3I+6q06vR7uAqX5sfZHvXVm92zj4S6kftRbd3przO7Cw12o5FFvpceB6vtObe7hLtST3s16DOFN/wd6tdpm11MGyJ/e2+cN69rDm/4pw2yzcdkHqnH7LVt9zxuqWruL7QXhX2QXpLfsVtWzdufTjcs+UF15tz/gsKorvRVldzt3fzJ3obr0bkfvur7Fm/7PMbvycBcqtXd7l62i9C6qWLu32f3lR08ZoNL03j7qndQT3vzZ9XAXqk9vVY96F/n/CB7uwojSux7VHfhSTbbZ9XAX6vfxDrz0+k4NCE5vPY96PdwFUjxv2K5e6R34KYPsgke9xGV36SkDjDG9P1+ndym9gzxl8J0ajPtR72oivdEPdy+96hzGy6Pe+OxOfKcGHvVuL2JKb9TD3c3SHUuQ3pv0LhuPekOye+Q7NWCb3u2j3sbo7f/h7tIdS+BTem+eNyxX0tvvw13ng4HP/Vj3HfgiHu5eergLfOn2DvyF9PYzdzfbuSu7wJfPG27Tu1bJ7rN7dOmOJXB3ek98y9aHqYe7wH3p9ai38+w2fmEC+Kan0tups212/5vsAt9N7+23bC9E03dqQNjzBt+ydWNxm13fqQEPSe/t84YP2rlLdn2nBrRJr0e9vlMD4tz+LtuV9LZyun3K4PfUgMc53j7qXV2paIvv1DYe7gLtnjfcpte3bI/M7pXv1IAdnjfc3oGX3kd8p3blwgSwY3o96n3cd2rbufuTuQvs8rxhm96V9D48uy5MADund/trxO7A3/+jDLILdPe8wbdsD/lOzcNdoNP0+pbtHrILdP684WN6vaz37oe7G08ZgB7S+9S3bL5TA4ZJr2/ZvjS5za6nDEAvts8blh71fp7d6dLDXaD/9HrU+9uPMkxvrrbLLtCvp9fpXTZr6b3O7mSbXQ93gb5tH/UuPeqdTzZL36kBUen9eZveyajTO7naZteFCSDI9lHv5Wq8zxsmHw/7HPv3AhDm6e0POIwzvbNpc+nCBDBAerdvjBzho97b79RkFxjA9kLFcnTpvf1OzYUJYKD0bn+qt5mML7u+UwOGS+/N84blaO7Az45ur7b7Cw9Ib4jF9kcZPNwFhre//Zbt4kX1LyGTXaAc2wsVzXoE2f1FdoFSnjfUnt7JpvGdGlBaerc/4FDpo97ZxndqQJHpPak0vYuP2fWUASjPj9v01nYc6Mp3akDJ6nvU6zs1oPjnDdv0rmpJ73TV+PVgoPz01vMt22yz8aMMQAof77JlT+/syndqQKL0bu/Ap07v7Gr7sww/ecoAZHnesE1v4jvw042Hu0C69Gb+lu1Tdj1lAJI9b9imN+HqnV65pwakTe/PCR/1nn7MrqcMQM7nDenS+/E7tZ9lF8ib3u1JzFWSu2yyC1SU3hSPeqcfs3vsrxqQ3I8/b9M78Z0aQGB6t+/OKTm9E9kFKvP055uLmMU+6p1Mlx7uArXZPuotNL2zaXMpu0Ct6W1Wk/Kyu9lm10vIgAptv2W7LCu9v2X32F8foM7Vu01vQd+yTbbZ9Z0aUPfqbZplU8ij3snm5ju1X9xTAyr39PZny4ZP7+TIGUtgNOkt4Vu2Tz/K4Ds1YCTpbW6+ZTsYPLvuqQEjS+9yqPTObo+2N7ILjMv2Ue/FiyEe7jbOWALjtHey/ZYt/kcZfKcGjD29od+yzW6z+4vsAmN1ewj+IDq73soAjNnTuPTObn9w148yANK7vUbcf3r9KAPAJ3tPA75l+5hd36kBxKRXdgG+Su/PPf6Aw2Sz8Z0awFe2P+DQx6PemewCRKZ3dtU4YwnwzecNNz9btrrqNLsbvx4McH96u/qWbTa9kl2Ae5833PyAQzfpvc7u0vVggIes3ptHvesOsrv9CbIfzV2Ae8t7c5htdTXpILu/yC7AAx84/Ly8Tu/Brtn1cBfgsav3QHYBgtP7+GvEk9ufIPvlJ9+pATw6vU8fn95PP7jrRxkAWqb3pGke8S3bbCq7AB2k9/KB6b3O7qXsAnSzetf3p3f26Yql79QAdvXjzyfL+x71Xmd36UcZAMLS+1t2vekcoMP0NqvJwbd+guxSdgHi0ju5WvpRBoCe0ttcp1d2AQLt/TG9k6OmcdcHoO/V+9u3bJNpc/uDuz/5Fwag39W7Te/Z5ja7v8guQER6P/66hOwChKVXdgFi03vzi8SyCxDqRz/JQFL/PxqvWqaVrRjnAAAAAElFTkSuQmCC;" parent="1" vertex="1">
          <mxGeometry x="425" y="930" width="176" height="110" as="geometry" />
        </mxCell>
        <mxCell id="FBP9V_QitPPs8bwZiFOF-6" value="" style="shape=image;verticalLabelPosition=bottom;labelBackgroundColor=default;verticalAlign=top;aspect=fixed;imageAspect=0;image=https://1000logos.net/wp-content/uploads/2021/11/Docker-Logo-2013.png;" parent="1" vertex="1">
          <mxGeometry x="428.54999999999995" y="1060" width="168.89" height="95" as="geometry" />
        </mxCell>
        <mxCell id="FBP9V_QitPPs8bwZiFOF-7" value="" style="shape=image;verticalLabelPosition=bottom;labelBackgroundColor=default;verticalAlign=top;aspect=fixed;imageAspect=0;image=https://juststickers.in/wp-content/uploads/2018/11/kubernetes-wordmark.png;" parent="1" vertex="1">
          <mxGeometry x="459.0000000000002" y="1170" width="108" height="108" as="geometry" />
        </mxCell>
        <mxCell id="YarOcEQwGEvd-WNYjrE3-27" value="&lt;font style=&quot;font-size: 14px;&quot;&gt;Saving the Keyclaok Data in Database&lt;/font&gt;" style="text;html=1;strokeColor=none;fillColor=none;align=center;verticalAlign=middle;whiteSpace=wrap;rounded=0;" parent="1" vertex="1">
          <mxGeometry x="-1051.25" y="920" width="182.5" height="40" as="geometry" />
        </mxCell>
        <mxCell id="4SNtgf0xh7RYGJRYf4XH-1" value="" style="endArrow=classic;html=1;rounded=0;flowAnimation=1;entryX=0.376;entryY=1.029;entryDx=0;entryDy=0;entryPerimeter=0;" edge="1" parent="1">
          <mxGeometry width="50" height="50" relative="1" as="geometry">
            <mxPoint x="-570" y="1200" as="sourcePoint" />
            <mxPoint x="-999" y="720" as="targetPoint" />
            <Array as="points">
              <mxPoint x="-1000" y="1200" />
            </Array>
          </mxGeometry>
        </mxCell>
        <mxCell id="4SNtgf0xh7RYGJRYf4XH-2" value="" style="endArrow=classic;html=1;rounded=0;flowAnimation=1;exitX=0.624;exitY=1.023;exitDx=0;exitDy=0;exitPerimeter=0;entryX=0;entryY=0.25;entryDx=0;entryDy=0;" edge="1" parent="1" target="K__z2euJDpCVZkljAeqn-2">
          <mxGeometry width="50" height="50" relative="1" as="geometry">
            <mxPoint x="-920" y="720" as="sourcePoint" />
            <mxPoint x="-920" y="1160" as="targetPoint" />
            <Array as="points">
              <mxPoint x="-920" y="1120" />
            </Array>
          </mxGeometry>
        </mxCell>
        <mxCell id="4stN7NY26LSZ3dm4umwW-40" value="" style="group" parent="1" vertex="1" connectable="0">
          <mxGeometry x="100" y="560" width="330" height="160" as="geometry" />
        </mxCell>
        <mxCell id="PULh2WPa8bwhRNqMOQ6o-7" value="" style="rounded=0;whiteSpace=wrap;html=1;fillColor=#dae8fc;strokeColor=#6c8ebf;" parent="4stN7NY26LSZ3dm4umwW-40" vertex="1">
          <mxGeometry x="-20" width="320" height="160" as="geometry" />
        </mxCell>
        <mxCell id="PULh2WPa8bwhRNqMOQ6o-8" value="" style="shape=image;verticalLabelPosition=bottom;labelBackgroundColor=default;verticalAlign=top;aspect=fixed;imageAspect=0;image=https://upload.wikimedia.org/wikipedia/commons/thumb/a/a7/React-icon.svg/1200px-React-icon.svg.png;" parent="4stN7NY26LSZ3dm4umwW-40" vertex="1">
          <mxGeometry x="-10" y="20" width="138.07" height="120" as="geometry" />
        </mxCell>
        <mxCell id="PULh2WPa8bwhRNqMOQ6o-9" value="&lt;font style=&quot;font-size: 40px;&quot;&gt;React UI&lt;/font&gt;" style="text;html=1;strokeColor=none;fillColor=none;align=center;verticalAlign=middle;whiteSpace=wrap;rounded=0;" parent="4stN7NY26LSZ3dm4umwW-40" vertex="1">
          <mxGeometry x="100" y="20" width="210" height="30" as="geometry" />
        </mxCell>
        <mxCell id="PULh2WPa8bwhRNqMOQ6o-10" value="&lt;font style=&quot;font-size: 14px;&quot;&gt;FrontEnd Service&lt;/font&gt;" style="text;html=1;strokeColor=none;fillColor=none;align=center;verticalAlign=middle;whiteSpace=wrap;rounded=0;" parent="4stN7NY26LSZ3dm4umwW-40" vertex="1">
          <mxGeometry x="121.86000000000007" y="70" width="178.14" height="80" as="geometry" />
        </mxCell>
        <mxCell id="4SNtgf0xh7RYGJRYf4XH-4" value="" style="endArrow=classic;html=1;rounded=0;flowAnimation=1;exitX=0.624;exitY=1.023;exitDx=0;exitDy=0;exitPerimeter=0;entryX=0.375;entryY=1.054;entryDx=0;entryDy=0;entryPerimeter=0;" edge="1" parent="1" target="K__z2euJDpCVZkljAeqn-2">
          <mxGeometry width="50" height="50" relative="1" as="geometry">
            <mxPoint x="280" y="720" as="sourcePoint" />
            <mxPoint x="-480" y="1360" as="targetPoint" />
            <Array as="points">
              <mxPoint x="280" y="1360" />
              <mxPoint x="-440" y="1360" />
            </Array>
          </mxGeometry>
        </mxCell>
        <mxCell id="4SNtgf0xh7RYGJRYf4XH-6" value="&lt;span style=&quot;font-size: 14px;&quot;&gt;Fetch the access token from Keycloak&lt;/span&gt;" style="text;html=1;strokeColor=none;fillColor=none;align=center;verticalAlign=middle;whiteSpace=wrap;rounded=0;" vertex="1" parent="1">
          <mxGeometry x="150" y="980.59" width="182.5" height="40" as="geometry" />
        </mxCell>
        <mxCell id="4SNtgf0xh7RYGJRYf4XH-7" value="&lt;span style=&quot;font-size: 14px;&quot;&gt;Send API requests with the access token&lt;/span&gt;" style="text;html=1;strokeColor=none;fillColor=none;align=center;verticalAlign=middle;whiteSpace=wrap;rounded=0;" vertex="1" parent="1">
          <mxGeometry x="-230" y="620" width="300" height="40" as="geometry" />
        </mxCell>
      </root>
    </mxGraphModel>
  </diagram>
</mxfile>
